<svg xmlns="http://www.w3.org/2000/svg" xmlns:xlink="http://www.w3.org/1999/xlink" xmlns:lucid="lucid" width="980" height="360"><g transform="translate(0 -200)" lucid:page-tab-id="0_0"><path d="M160 290c0 38.66-31.34 70-70 70s-70-31.34-70-70 31.34-70 70-70 70 31.34 70 70z" stroke="#000" stroke-width="2" fill="#c1e4f7"/><use xlink:href="#a" transform="matrix(1,0,0,1,25,225) translate(15.5 57.8)"/><use xlink:href="#b" transform="matrix(1,0,0,1,25,225) translate(49.5 57.8)"/><use xlink:href="#c" transform="matrix(1,0,0,1,25,225) translate(22.549999999999997 79.4)"/><path d="M200 230h140v120H200z" stroke="#000" stroke-width="2" fill="#c7e8ac"/><use xlink:href="#a" transform="matrix(1,0,0,1,205,235) translate(15.5 47.8)"/><use xlink:href="#b" transform="matrix(1,0,0,1,205,235) translate(49.5 47.8)"/><use xlink:href="#d" transform="matrix(1,0,0,1,205,235) translate(24.074999999999996 69.4)"/><path d="M400 230h140v120H400z" stroke="#000" stroke-width="2" fill="#c7e8ac"/><use xlink:href="#e" transform="matrix(1,0,0,1,405,235) translate(38.05 47.8)"/><use xlink:href="#f" transform="matrix(1,0,0,1,405,235) translate(20.049999999999997 69.4)"/><path d="M672 230l70 60-70 60-70-60z" stroke="#000" stroke-width="2" fill="#ffeca9"/><use xlink:href="#g" transform="matrix(1,0,0,1,607,235) translate(36.574999999999996 47.8)"/><use xlink:href="#h" transform="matrix(1,0,0,1,607,235) translate(23.574999999999996 69.4)"/><path d="M820 230h140v120H820z" stroke="#000" stroke-width="2" fill="#c7e8ac"/><use xlink:href="#i" transform="matrix(1,0,0,1,825,235) translate(15.074999999999996 58.6)"/><use xlink:href="#j" transform="matrix(1,0,0,1,825,235) translate(49.074999999999996 58.6)"/><path d="M602 420h140v120H602z" stroke="#000" stroke-width="2" fill="#c7e8ac"/><use xlink:href="#i" transform="matrix(1,0,0,1,607,425) translate(20.700000000000003 58.6)"/><use xlink:href="#k" transform="matrix(1,0,0,1,607,425) translate(54.7 58.6)"/><path d="M820 420h140v120H820z" stroke="#000" stroke-width="2" fill="#c7e8ac"/><use xlink:href="#l" transform="matrix(1,0,0,1,825,425) translate(36.025 37)"/><use xlink:href="#m" transform="matrix(1,0,0,1,825,425) translate(1.5999999999999943 58.6)"/><use xlink:href="#n" transform="matrix(1,0,0,1,825,425) translate(96.5 58.6)"/><use xlink:href="#o" transform="matrix(1,0,0,1,825,425) translate(0.7999999999999972 80.20000000000002)"/><use xlink:href="#p" transform="matrix(1,0,0,1,825,425) translate(51.4 80.20000000000002)"/><use xlink:href="#q" transform="matrix(1,0,0,1,825,425) translate(72.35 80.20000000000002)"/><path d="M161 290h19.76" stroke="#000" stroke-width="2" fill="none"/><path d="M161 291h-1.04l.04-1-.04-1H161zM195.76 290l-14.26 4.64v-9.28z"/><path d="M199 290l-18.5 6v-12zm-16.5 3.26l10.03-3.26-10.03-3.26z"/><path d="M341 290h39.76" stroke="#000" stroke-width="2" fill="none"/><path d="M341 291h-1v-2h1zM395.76 290l-14.26 4.64v-9.28z"/><path d="M399 290l-18.5 6v-12zm-16.5 3.26l10.03-3.26-10.03-3.26z"/><path d="M541 290h41.23" stroke="#000" stroke-width="2" fill="none"/><path d="M541 291h-1v-2h1zM597.23 290l-14.27 4.64v-9.28z"/><path d="M600.46 290l-18.5 6v-12zm-16.5 3.26L594 290l-10.04-3.26zM766.6 291h-23.06v-2h23.05zm34.16 0h-4.82v-2h4.82zM743.54 291h-2.7l1.16-1-1.17-1h2.7zM815.76 290l-14.26 4.64v-9.28z"/><path d="M819 290l-18.5 6v-12zm-16.5 3.26l10.03-3.26-10.03-3.26z"/><use xlink:href="#r" transform="matrix(1,0,0,1,766.5932955000001,279.2) translate(0 14.4)"/><path d="M673 400.76h-2v-4.8h2zm0-26.4h-2v-23.04h2zM673 351.32h-2v-2.18l1 .86 1-.86zM672 415.76l-4.64-14.26h9.28z"/><path d="M672 419l-6-18.5h12zm-3.26-16.5l3.26 10.03 3.26-10.03z"/><g><use xlink:href="#s" transform="matrix(1,0,0,1,660.525,374.358539) translate(0 14.4)"/></g><path d="M890 351v49.76" stroke="#000" stroke-width="2" fill="none"/><path d="M891 351h-2v-1h2zM890 415.76l-4.64-14.26h9.28z"/><path d="M890 419l-6-18.5h12zm-3.26-16.5l3.26 10.03 3.26-10.03z"/><path d="M743 480h57.76" stroke="#000" stroke-width="2" fill="none"/><path d="M743 481h-1v-2h1zM815.76 480l-14.26 4.64v-9.28z"/><path d="M819 480l-18.5 6v-12zm-16.5 3.26l10.03-3.26-10.03-3.26z"/><defs><path d="M143 4C61 4 22-44 18-125c-5-107 100-154 193-111 17 8 29 25 37 43l-32 9c-13-25-37-40-76-40-61 0-88 39-88 99 0 61 29 100 91 101 35 0 62-11 79-27v-45h-74v-28h105v86C228-13 192 4 143 4" id="t"/><path d="M100-194c63 0 86 42 84 106H49c0 40 14 67 53 68 26 1 43-12 49-29l28 8c-11 28-37 45-77 45C44 4 14-33 15-96c1-61 26-98 85-98zm52 81c6-60-76-77-97-28-3 7-6 17-6 28h103" id="u"/><path d="M59-47c-2 24 18 29 38 22v24C64 9 27 4 27-40v-127H5v-23h24l9-43h21v43h35v23H59v120" id="v"/><g id="a"><use transform="matrix(0.05,0,0,0.05,0,0)" xlink:href="#t"/><use transform="matrix(0.05,0,0,0.05,14,0)" xlink:href="#u"/><use transform="matrix(0.05,0,0,0.05,24,0)" xlink:href="#v"/></g><path d="M205 0l-28-72H64L36 0H1l101-248h38L239 0h-34zm-38-99l-47-123c-12 45-31 82-46 123h93" id="w"/><path d="M96-169c-40 0-48 33-48 73s9 75 48 75c24 0 41-14 43-38l32 2c-6 37-31 61-74 61-59 0-76-41-82-99-10-93 101-131 147-64 4 7 5 14 7 22l-32 3c-4-21-16-35-41-35" id="x"/><path d="M100-194c62-1 85 37 85 99 1 63-27 99-86 99S16-35 15-95c0-66 28-99 85-99zM99-20c44 1 53-31 53-75 0-43-8-75-51-75s-53 32-53 75 10 74 51 75" id="y"/><path d="M84 4C-5 8 30-112 23-190h32v120c0 31 7 50 39 49 72-2 45-101 50-169h31l1 190h-30c-1-10 1-25-2-33-11 22-28 36-60 37" id="z"/><path d="M117-194c89-4 53 116 60 194h-32v-121c0-31-8-49-39-48C34-167 62-67 57 0H25l-1-190h30c1 10-1 24 2 32 11-22 29-35 61-36" id="A"/><g id="b"><use transform="matrix(0.05,0,0,0.05,0,0)" xlink:href="#w"/><use transform="matrix(0.05,0,0,0.05,12,0)" xlink:href="#x"/><use transform="matrix(0.05,0,0,0.05,21,0)" xlink:href="#x"/><use transform="matrix(0.05,0,0,0.05,30,0)" xlink:href="#y"/><use transform="matrix(0.05,0,0,0.05,40,0)" xlink:href="#z"/><use transform="matrix(0.05,0,0,0.05,50,0)" xlink:href="#A"/><use transform="matrix(0.05,0,0,0.05,60,0)" xlink:href="#v"/></g><path d="M33 0v-248h34V0H33" id="B"/><path d="M101-234c-31-9-42 10-38 44h38v23H63V0H32v-167H5v-23h27c-7-52 17-82 69-68v24" id="C"/><path d="M114-163C36-179 61-72 57 0H25l-1-190h30c1 12-1 29 2 39 6-27 23-49 58-41v29" id="D"/><path d="M141-36C126-15 110 5 73 4 37 3 15-17 15-53c-1-64 63-63 125-63 3-35-9-54-41-54-24 1-41 7-42 31l-33-3c5-37 33-52 76-52 45 0 72 20 72 64v82c-1 20 7 32 28 27v20c-31 9-61-2-59-35zM48-53c0 20 12 33 32 33 41-3 63-29 60-74-43 2-92-5-92 41" id="E"/><path d="M24-231v-30h32v30H24zM24 0v-190h32V0H24" id="F"/><g id="c"><use transform="matrix(0.05,0,0,0.05,0,0)" xlink:href="#B"/><use transform="matrix(0.05,0,0,0.05,5,0)" xlink:href="#A"/><use transform="matrix(0.05,0,0,0.05,15,0)" xlink:href="#C"/><use transform="matrix(0.05,0,0,0.05,20,0)" xlink:href="#y"/><use transform="matrix(0.05,0,0,0.05,30,0)" xlink:href="#D"/><use transform="matrix(0.05,0,0,0.05,35.95,0)" xlink:href="#A"/><use transform="matrix(0.05,0,0,0.05,45.95,0)" xlink:href="#E"/><use transform="matrix(0.05,0,0,0.05,55.95,0)" xlink:href="#v"/><use transform="matrix(0.05,0,0,0.05,60.95,0)" xlink:href="#F"/><use transform="matrix(0.05,0,0,0.05,64.9,0)" xlink:href="#y"/><use transform="matrix(0.05,0,0,0.05,74.9,0)" xlink:href="#A"/></g><path d="M127-220V0H93v-220H8v-28h204v28h-85" id="G"/><path d="M210-169c-67 3-38 105-44 169h-31v-121c0-29-5-50-35-48C34-165 62-65 56 0H25l-1-190h30c1 10-1 24 2 32 10-44 99-50 107 0 11-21 27-35 58-36 85-2 47 119 55 194h-31v-121c0-29-5-49-35-48" id="H"/><path d="M115-194c55 1 70 41 70 98S169 2 115 4C84 4 66-9 55-30l1 105H24l-1-265h31l2 30c10-21 28-34 59-34zm-8 174c40 0 45-34 45-75s-6-73-45-74c-42 0-51 32-51 76 0 43 10 73 51 73" id="I"/><path d="M24 0v-261h32V0H24" id="J"/><path d="M135-143c-3-34-86-38-87 0 15 53 115 12 119 90S17 21 10-45l28-5c4 36 97 45 98 0-10-56-113-15-118-90-4-57 82-63 122-42 12 7 21 19 24 35" id="K"/><g id="d"><use transform="matrix(0.05,0,0,0.05,0,0)" xlink:href="#G"/><use transform="matrix(0.05,0,0,0.05,8.950000000000001,0)" xlink:href="#u"/><use transform="matrix(0.05,0,0,0.05,18.950000000000003,0)" xlink:href="#H"/><use transform="matrix(0.05,0,0,0.05,33.900000000000006,0)" xlink:href="#I"/><use transform="matrix(0.05,0,0,0.05,43.900000000000006,0)" xlink:href="#J"/><use transform="matrix(0.05,0,0,0.05,47.85000000000001,0)" xlink:href="#E"/><use transform="matrix(0.05,0,0,0.05,57.85,0)" xlink:href="#v"/><use transform="matrix(0.05,0,0,0.05,62.85,0)" xlink:href="#u"/><use transform="matrix(0.05,0,0,0.05,72.85000000000001,0)" xlink:href="#K"/></g><path d="M212-179c-10-28-35-45-73-45-59 0-87 40-87 99 0 60 29 101 89 101 43 0 62-24 78-52l27 14C228-24 195 4 139 4 59 4 22-46 18-125c-6-104 99-153 187-111 19 9 31 26 39 46" id="L"/><g id="e"><use transform="matrix(0.05,0,0,0.05,0,0)" xlink:href="#L"/><use transform="matrix(0.05,0,0,0.05,12.950000000000001,0)" xlink:href="#D"/><use transform="matrix(0.05,0,0,0.05,18.900000000000002,0)" xlink:href="#u"/><use transform="matrix(0.05,0,0,0.05,28.900000000000002,0)" xlink:href="#E"/><use transform="matrix(0.05,0,0,0.05,38.900000000000006,0)" xlink:href="#v"/><use transform="matrix(0.05,0,0,0.05,43.900000000000006,0)" xlink:href="#u"/></g><path d="M30 0v-248h187v28H63v79h144v27H63v87h162V0H30" id="M"/><path d="M141 0L90-78 38 0H4l68-98-65-92h35l48 74 47-74h35l-64 92 68 98h-35" id="N"/><g id="f"><use transform="matrix(0.05,0,0,0.05,0,0)" xlink:href="#M"/><use transform="matrix(0.05,0,0,0.05,12,0)" xlink:href="#N"/><use transform="matrix(0.05,0,0,0.05,21,0)" xlink:href="#I"/><use transform="matrix(0.05,0,0,0.05,31,0)" xlink:href="#u"/><use transform="matrix(0.05,0,0,0.05,41,0)" xlink:href="#D"/><use transform="matrix(0.05,0,0,0.05,46.95,0)" xlink:href="#F"/><use transform="matrix(0.05,0,0,0.05,50.900000000000006,0)" xlink:href="#u"/><use transform="matrix(0.05,0,0,0.05,60.900000000000006,0)" xlink:href="#A"/><use transform="matrix(0.05,0,0,0.05,70.9,0)" xlink:href="#x"/><use transform="matrix(0.05,0,0,0.05,79.9,0)" xlink:href="#u"/></g><path d="M30-248c87 1 191-15 191 75 0 78-77 80-158 76V0H30v-248zm33 125c57 0 124 11 124-50 0-59-68-47-124-48v98" id="O"/><path d="M179-190L93 31C79 59 56 82 12 73V49c39 6 53-20 64-50L1-190h34L92-34l54-156h33" id="P"/><g id="g"><use transform="matrix(0.05,0,0,0.05,0,0)" xlink:href="#O"/><use transform="matrix(0.05,0,0,0.05,12,0)" xlink:href="#J"/><use transform="matrix(0.05,0,0,0.05,15.949999999999998,0)" xlink:href="#E"/><use transform="matrix(0.05,0,0,0.05,25.950000000000003,0)" xlink:href="#P"/><use transform="matrix(0.05,0,0,0.05,34.95,0)" xlink:href="#J"/><use transform="matrix(0.05,0,0,0.05,38.900000000000006,0)" xlink:href="#F"/><use transform="matrix(0.05,0,0,0.05,42.85000000000001,0)" xlink:href="#K"/><use transform="matrix(0.05,0,0,0.05,51.85,0)" xlink:href="#v"/></g><path d="M103-251c84 0 111 97 45 133-19 10-37 24-39 52H78c0-63 77-55 77-114 0-30-21-42-52-43-32 0-53 17-56 46l-32-2c7-45 34-72 88-72zM77 0v-35h34V0H77" id="Q"/><g id="h"><use transform="matrix(0.05,0,0,0.05,0,0)" xlink:href="#G"/><use transform="matrix(0.05,0,0,0.05,8.950000000000001,0)" xlink:href="#u"/><use transform="matrix(0.05,0,0,0.05,18.950000000000003,0)" xlink:href="#H"/><use transform="matrix(0.05,0,0,0.05,33.900000000000006,0)" xlink:href="#I"/><use transform="matrix(0.05,0,0,0.05,43.900000000000006,0)" xlink:href="#J"/><use transform="matrix(0.05,0,0,0.05,47.85000000000001,0)" xlink:href="#E"/><use transform="matrix(0.05,0,0,0.05,57.85,0)" xlink:href="#v"/><use transform="matrix(0.05,0,0,0.05,62.85,0)" xlink:href="#u"/><use transform="matrix(0.05,0,0,0.05,72.85000000000001,0)" xlink:href="#Q"/></g><g id="i"><use transform="matrix(0.05,0,0,0.05,0,0)" xlink:href="#t"/><use transform="matrix(0.05,0,0,0.05,14,0)" xlink:href="#u"/><use transform="matrix(0.05,0,0,0.05,24,0)" xlink:href="#v"/></g><g id="j"><use transform="matrix(0.05,0,0,0.05,0,0)" xlink:href="#O"/><use transform="matrix(0.05,0,0,0.05,12,0)" xlink:href="#J"/><use transform="matrix(0.05,0,0,0.05,15.949999999999998,0)" xlink:href="#E"/><use transform="matrix(0.05,0,0,0.05,25.950000000000003,0)" xlink:href="#P"/><use transform="matrix(0.05,0,0,0.05,34.95,0)" xlink:href="#J"/><use transform="matrix(0.05,0,0,0.05,38.900000000000006,0)" xlink:href="#F"/><use transform="matrix(0.05,0,0,0.05,42.85000000000001,0)" xlink:href="#K"/><use transform="matrix(0.05,0,0,0.05,51.85,0)" xlink:href="#v"/><use transform="matrix(0.05,0,0,0.05,56.85,0)" xlink:href="#K"/></g><path d="M137 0h-34L2-248h35l83 218 83-218h36" id="R"/><path d="M85-194c31 0 48 13 60 33l-1-100h32l1 261h-30c-2-10 0-23-3-31C134-8 116 4 85 4 32 4 16-35 15-94c0-66 23-100 70-100zm9 24c-40 0-46 34-46 75 0 40 6 74 45 74 42 0 51-32 51-76 0-42-9-74-50-73" id="S"/><g id="k"><use transform="matrix(0.05,0,0,0.05,0,0)" xlink:href="#R"/><use transform="matrix(0.05,0,0,0.05,11.65,0)" xlink:href="#F"/><use transform="matrix(0.05,0,0,0.05,15.600000000000001,0)" xlink:href="#S"/><use transform="matrix(0.05,0,0,0.05,25.6,0)" xlink:href="#u"/><use transform="matrix(0.05,0,0,0.05,35.6,0)" xlink:href="#y"/><use transform="matrix(0.05,0,0,0.05,45.6,0)" xlink:href="#K"/></g><path d="M232-93c-1 65-40 97-104 97C67 4 28-28 28-90v-158h33c8 89-33 224 67 224 102 0 64-133 71-224h33v155" id="T"/><g id="l"><use transform="matrix(0.05,0,0,0.05,0,0)" xlink:href="#T"/><use transform="matrix(0.05,0,0,0.05,12.950000000000001,0)" xlink:href="#I"/><use transform="matrix(0.05,0,0,0.05,22.950000000000003,0)" xlink:href="#S"/><use transform="matrix(0.05,0,0,0.05,32.95,0)" xlink:href="#E"/><use transform="matrix(0.05,0,0,0.05,42.95,0)" xlink:href="#v"/><use transform="matrix(0.05,0,0,0.05,47.95,0)" xlink:href="#u"/></g><g id="m"><use transform="matrix(0.05,0,0,0.05,0,0)" xlink:href="#M"/><use transform="matrix(0.05,0,0,0.05,12,0)" xlink:href="#N"/><use transform="matrix(0.05,0,0,0.05,21,0)" xlink:href="#I"/><use transform="matrix(0.05,0,0,0.05,31,0)" xlink:href="#u"/><use transform="matrix(0.05,0,0,0.05,41,0)" xlink:href="#D"/><use transform="matrix(0.05,0,0,0.05,46.95,0)" xlink:href="#F"/><use transform="matrix(0.05,0,0,0.05,50.900000000000006,0)" xlink:href="#u"/><use transform="matrix(0.05,0,0,0.05,60.900000000000006,0)" xlink:href="#A"/><use transform="matrix(0.05,0,0,0.05,70.9,0)" xlink:href="#x"/><use transform="matrix(0.05,0,0,0.05,79.9,0)" xlink:href="#u"/></g><path d="M206 0h-36l-40-164L89 0H53L-1-190h32L70-26l43-164h34l41 164 42-164h31" id="U"/><path d="M106-169C34-169 62-67 57 0H25v-261h32l-1 103c12-21 28-36 61-36 89 0 53 116 60 194h-32v-121c2-32-8-49-39-48" id="V"/><g id="n"><use transform="matrix(0.05,0,0,0.05,0,0)" xlink:href="#U"/><use transform="matrix(0.05,0,0,0.05,12.950000000000001,0)" xlink:href="#F"/><use transform="matrix(0.05,0,0,0.05,16.900000000000002,0)" xlink:href="#v"/><use transform="matrix(0.05,0,0,0.05,21.900000000000002,0)" xlink:href="#V"/></g><g id="o"><use transform="matrix(0.05,0,0,0.05,0,0)" xlink:href="#R"/><use transform="matrix(0.05,0,0,0.05,11.65,0)" xlink:href="#F"/><use transform="matrix(0.05,0,0,0.05,15.600000000000001,0)" xlink:href="#S"/><use transform="matrix(0.05,0,0,0.05,25.6,0)" xlink:href="#u"/><use transform="matrix(0.05,0,0,0.05,35.6,0)" xlink:href="#y"/></g><g id="p"><use transform="matrix(0.05,0,0,0.05,0,0)" xlink:href="#y"/><use transform="matrix(0.05,0,0,0.05,10,0)" xlink:href="#D"/></g><g id="q"><use transform="matrix(0.05,0,0,0.05,0,0)" xlink:href="#O"/><use transform="matrix(0.05,0,0,0.05,12,0)" xlink:href="#J"/><use transform="matrix(0.05,0,0,0.05,15.949999999999998,0)" xlink:href="#E"/><use transform="matrix(0.05,0,0,0.05,25.950000000000003,0)" xlink:href="#P"/><use transform="matrix(0.05,0,0,0.05,34.95,0)" xlink:href="#J"/><use transform="matrix(0.05,0,0,0.05,38.900000000000006,0)" xlink:href="#F"/><use transform="matrix(0.05,0,0,0.05,42.85000000000001,0)" xlink:href="#K"/><use transform="matrix(0.05,0,0,0.05,51.85,0)" xlink:href="#v"/></g><path d="M137-103V0h-34v-103L8-248h37l75 118 75-118h37" id="W"/><g id="r"><use transform="matrix(0.05,0,0,0.05,0,0)" xlink:href="#W"/><use transform="matrix(0.05,0,0,0.05,10.35,0)" xlink:href="#u"/><use transform="matrix(0.05,0,0,0.05,20.35,0)" xlink:href="#K"/></g><path d="M190 0L58-211 59 0H30v-248h39L202-35l-2-213h31V0h-41" id="X"/><g id="s"><use transform="matrix(0.05,0,0,0.05,0,0)" xlink:href="#X"/><use transform="matrix(0.05,0,0,0.05,12.950000000000001,0)" xlink:href="#y"/></g></defs></g></svg>