<?xml version="1.0" encoding="UTF-8"?>
<!DOCTYPE svg PUBLIC "-//W3C//DTD SVG 1.1//EN" "http://www.w3.org/Graphics/SVG/1.1/DTD/svg11.dtd">
<svg version="1.1" xmlns="http://www.w3.org/2000/svg" xmlns:xlink="http://www.w3.org/1999/xlink" x="0" y="0" width="612" height="200" viewBox="0, 0, 612, 200">
  <g id="Layer_1">
    <g>
      <path d="M102.5,168.5 C66.049,168.5 36.5,138.951 36.5,102.5 C36.5,66.049 66.049,36.5 102.5,36.5 C138.951,36.5 168.5,66.049 168.5,102.5 C168.5,138.951 138.951,168.5 102.5,168.5 z" fill="#FFFFFF"/>
      <path d="M102.5,168.5 C66.049,168.5 36.5,138.951 36.5,102.5 C36.5,66.049 66.049,36.5 102.5,36.5 C138.951,36.5 168.5,66.049 168.5,102.5 C168.5,138.951 138.951,168.5 102.5,168.5 z" fill-opacity="0" stroke="#000000" stroke-width="1"/>
    </g>
    <text transform="matrix(1, 0, 0, 1, 102, 102)">
      <tspan x="-23.856" y="-16" font-family="Gotham-Bold" font-size="14" fill="#000000">Master </tspan>
      <tspan x="-17.108" y="1" font-family="Gotham-Bold" font-size="14" fill="#000000">adds </tspan>
      <tspan x="-28.798" y="18" font-family="Gotham-Bold" font-size="14" fill="#000000">Channel</tspan>
      <tspan x="28.798" y="18" font-family="Gotham-Bold" font-size="11" fill="#000000"> </tspan>
    </text>
    <g>
      <path d="M252.5,58.5 L360.5,58.5 C367.127,58.5 372.5,63.873 372.5,70.5 L372.5,142.5 C372.5,149.127 367.127,154.5 360.5,154.5 L252.5,154.5 C245.873,154.5 240.5,149.127 240.5,142.5 L240.5,70.5 C240.5,63.873 245.873,58.5 252.5,58.5 z" fill="#FFFDFD" fill-opacity="0"/>
      <path d="M252.5,58.5 L360.5,58.5 C367.127,58.5 372.5,63.873 372.5,70.5 L372.5,142.5 C372.5,149.127 367.127,154.5 360.5,154.5 L252.5,154.5 C245.873,154.5 240.5,149.127 240.5,142.5 L240.5,70.5 C240.5,63.873 245.873,58.5 252.5,58.5 z" fill-opacity="0" stroke="#000000" stroke-width="1"/>
    </g>
    <text transform="matrix(1, 0, 0, 1, 306, 106)">
      <tspan x="-43.064" y="-12" font-family="Gotham-Bold" font-size="14" fill="#000000">Master adds</tspan>
      <tspan x="-32.074" y="5" font-family="Gotham-Bold" font-size="14" fill="#000000">Affiliates</tspan>
      <tspan x="-38.451" y="22" font-family="Gotham-Bold" font-size="14" fill="#000000">to Channel</tspan>
    </text>
    <g>
      <path d="M456.5,60.5 L564.5,60.5 C571.127,60.5 576.5,65.873 576.5,72.5 L576.5,144.5 C576.5,151.127 571.127,156.5 564.5,156.5 L456.5,156.5 C449.873,156.5 444.5,151.127 444.5,144.5 L444.5,72.5 C444.5,65.873 449.873,60.5 456.5,60.5 z" fill="#FFFDFD" fill-opacity="0"/>
      <path d="M456.5,60.5 L564.5,60.5 C571.127,60.5 576.5,65.873 576.5,72.5 L576.5,144.5 C576.5,151.127 571.127,156.5 564.5,156.5 L456.5,156.5 C449.873,156.5 444.5,151.127 444.5,144.5 L444.5,72.5 C444.5,65.873 449.873,60.5 456.5,60.5 z" fill-opacity="0" stroke="#000000" stroke-width="1"/>
    </g>
    <text transform="matrix(1, 0, 0, 1, 510, 106.5)">
      <tspan x="-28.56" y="-20.5" font-family="Gotham-Bold" font-size="14" fill="#000000">Affiliate </tspan>
      <tspan x="-37.247" y="-3.5" font-family="Gotham-Bold" font-size="14" fill="#000000">accepts or </tspan>
      <tspan x="-24.038" y="13.5" font-family="Gotham-Bold" font-size="14" fill="#000000">rejects</tspan>
      <tspan x="-31.052" y="30.5" font-family="Gotham-Bold" font-size="14" fill="#000000">Contract</tspan>
    </text>
    <g>
      <path d="M168.5,108.5 L231.1,108.5" fill-opacity="0" stroke="#000000" stroke-width="3"/>
      <path d="M229.1,112.7 L238.1,108.5 L229.1,104.3 M231.1,108.5 L238.1,108.5 M239.5,115.5 L239.5,101.5" fill-opacity="0" stroke="#000000" stroke-width="3" stroke-opacity="1"/>
    </g>
    <g>
      <path d="M372.5,108.5 L435.1,108.5" fill-opacity="0" stroke="#000000" stroke-width="3"/>
      <path d="M433.1,112.7 L442.1,108.5 L433.1,104.3 M435.1,108.5 L442.1,108.5 M443.5,115.5 L443.5,101.5" fill-opacity="0" stroke="#000000" stroke-width="3" stroke-opacity="1"/>
    </g>
  </g>
</svg>
