<?xml version="1.0" encoding="UTF-8"?>
<!DOCTYPE svg PUBLIC "-//W3C//DTD SVG 1.1//EN" "http://www.w3.org/Graphics/SVG/1.1/DTD/svg11.dtd">
<svg version="1.1" xmlns="http://www.w3.org/2000/svg" xmlns:xlink="http://www.w3.org/1999/xlink" x="0" y="0" width="612" height="792" viewBox="0, 0, 612, 792">
  <g id="Layer_1">
    <g>
      <path d="M36.5,60.5 L72.5,60.5 L72.5,744.5 L36.5,744.5 L36.5,60.5 z" fill="#A8A3A3"/>
      <path d="M36.5,60.5 L72.5,60.5 L72.5,744.5 L36.5,744.5 L36.5,60.5 z" fill-opacity="0" stroke="#000000" stroke-width="1"/>
    </g>
    <g>
      <path d="M540.5,60.5 L576.5,60.5 L576.5,744.5 L540.5,744.5 L540.5,60.5 z" fill="#A8A3A3"/>
      <path d="M540.5,60.5 L576.5,60.5 L576.5,744.5 L540.5,744.5 L540.5,60.5 z" fill-opacity="0" stroke="#000000" stroke-width="1"/>
    </g>
    <text transform="matrix(1, 0, 0, 1, 59.856, 34.5)">
      <tspan x="-23.856" y="5" font-family="Gotham-Bold" font-size="14" fill="#000000">Master</tspan>
    </text>
    <text transform="matrix(1, 0, 0, 1, 562.223, 43)">
      <tspan x="-28.56" y="-3.5" font-family="Gotham-Bold" font-size="14" fill="#000000">Affiliate</tspan>
    </text>
    <g>
      <path d="M72.5,96.5 L519.5,96.5" fill-opacity="0" stroke="#C5B4B4" stroke-width="6"/>
      <path d="M519.5,102.5 L535.5,96.5 L519.5,90.5 z" fill="#C5B4B4" fill-opacity="1" stroke="#C5B4B4" stroke-width="6" stroke-opacity="1"/>
    </g>
    <text transform="matrix(1, 0, 0, 1, 303.33, 77.5)">
      <tspan x="-43.33" y="5" font-family="Gotham-Bold" font-size="14" fill="#000000">Share Video</tspan>
    </text>
    <text transform="matrix(1, 0, 0, 1, 305.078, 118)">
      <tspan x="-85.078" y="-3.5" font-family="Gotham-Bold" font-size="14" fill="#000000">All metadata and assets</tspan>
      <tspan x="-60.774" y="13.5" font-family="Gotham-Bold" font-size="14" fill="#000000">shared to affilate</tspan>
    </text>
    <g>
      <path d="M72.5,184 L519.5,184" fill-opacity="0" stroke="#C5B4B4" stroke-width="6"/>
      <path d="M519.5,190 L535.5,184 L519.5,178 z" fill="#C5B4B4" fill-opacity="1" stroke="#C5B4B4" stroke-width="6" stroke-opacity="1"/>
    </g>
    <text transform="matrix(1, 0, 0, 1, 303.33, 183.5)">
      <tspan x="-99.498" y="-12" font-family="Gotham-Bold" font-size="14" fill="#000000">Replace/Retanscode  Video</tspan>
    </text>
    <text transform="matrix(1, 0, 0, 1, 305.078, 205.5)">
      <tspan x="-64.596" y="-3.5" font-family="Gotham-Bold" font-size="14" fill="#000000">All new renditions </tspan>
      <tspan x="-60.55" y="13.5" font-family="Gotham-Bold" font-size="14" fill="#000000">replace Affilate's</tspan>
    </text>
    <g>
      <path d="M72.5,266.5 L519.5,266.5" fill-opacity="0" stroke="#C5B4B4" stroke-width="6"/>
      <path d="M519.5,272.5 L535.5,266.5 L519.5,260.5 z" fill="#C5B4B4" fill-opacity="1" stroke="#C5B4B4" stroke-width="6" stroke-opacity="1"/>
    </g>
    <text transform="matrix(1, 0, 0, 1, 303.33, 253)">
      <tspan x="-90.594" y="1" font-family="Gotham-Bold" font-size="14" fill="#000000">Add/Replace Text Tracks</tspan>
    </text>
    <text transform="matrix(1, 0, 0, 1, 305.078, 288)">
      <tspan x="-66.556" y="-3.5" font-family="Gotham-Bold" font-size="14" fill="#000000">All new text tracks </tspan>
      <tspan x="-70.861" y="13.5" font-family="Gotham-Bold" font-size="14" fill="#000000">mirrored on Affilate</tspan>
    </text>
    <g>
      <path d="M72.5,350.5 L519.5,350.5" fill-opacity="0" stroke="#C5B4B4" stroke-width="6"/>
      <path d="M519.5,356.5 L535.5,350.5 L519.5,344.5 z" fill="#C5B4B4" fill-opacity="1" stroke="#C5B4B4" stroke-width="6" stroke-opacity="1"/>
    </g>
    <text transform="matrix(1, 0, 0, 1, 303.33, 337)">
      <tspan x="-74.851" y="1" font-family="Gotham-Bold" font-size="14" fill="#000000">Add/Replace images</tspan>
    </text>
    <text transform="matrix(1, 0, 0, 1, 303.33, 375.25)">
      <tspan x="-116.347" y="-6.75" font-family="Gotham-Bold" font-size="14" fill="#000000">New images mirrored on Affilate </tspan>
      <tspan x="-117.243" y="10.25" font-family="Gotham-Bold" font-size="14" fill="#000000">IF Affilate has not replaced them</tspan>
    </text>
    <g>
      <path d="M72.5,434.5 L519.5,434.5" fill-opacity="0" stroke="#C5B4B4" stroke-width="6"/>
      <path d="M519.5,440.5 L535.5,434.5 L519.5,428.5 z" fill="#C5B4B4" fill-opacity="1" stroke="#C5B4B4" stroke-width="6" stroke-opacity="1"/>
    </g>
    <text transform="matrix(1, 0, 0, 1, 303.33, 421)">
      <tspan x="-79.093" y="1" font-family="Gotham-Bold" font-size="14" fill="#000000">Unshare/Delete Video</tspan>
    </text>
    <text transform="matrix(1, 0, 0, 1, 303.33, 459.25)">
      <tspan x="-102.403" y="-6.75" font-family="Gotham-Bold" font-size="14" fill="#000000">Video removed from Affilate</tspan>
    </text>
    <g>
      <path d="M72.5,506.5 L519.5,506.5" fill-opacity="0" stroke="#C5B4B4" stroke-width="6"/>
      <path d="M519.5,512.5 L535.5,506.5 L519.5,500.5 z" fill="#C5B4B4" fill-opacity="1" stroke="#C5B4B4" stroke-width="6" stroke-opacity="1"/>
    </g>
    <text transform="matrix(1, 0, 0, 1, 303.33, 493)">
      <tspan x="-51.716" y="1" font-family="Gotham-Bold" font-size="14" fill="#000000">Reshare Video</tspan>
    </text>
    <text transform="matrix(1, 0, 0, 1, 303.33, 546)">
      <tspan x="-94.689" y="-16" font-family="Gotham-Bold" font-size="14" fill="#000000">Reshares the Video and all </tspan>
      <tspan x="-115.822" y="1" font-family="Gotham-Bold" font-size="14" fill="#000000">metadata - any changes Affiliate  </tspan>
      <tspan x="-103.208" y="18" font-family="Gotham-Bold" font-size="14" fill="#000000">has made will be overwritten</tspan>
    </text>
    <g>
      <path d="M93.5,638.5 L540.5,638.5" fill-opacity="0" stroke="#C5B4B4" stroke-width="6"/>
      <path d="M93.5,632.5 L77.5,638.5 L93.5,644.5 z" fill="#C5B4B4" fill-opacity="1" stroke="#C5B4B4" stroke-width="6" stroke-opacity="1"/>
    </g>
    <text transform="matrix(1, 0, 0, 1, 303.33, 625)">
      <tspan x="-100.268" y="1" font-family="Gotham-Bold" font-size="14" fill="#000000">Change images or metadata</tspan>
    </text>
    <text transform="matrix(1, 0, 0, 1, 303.33, 678)">
      <tspan x="-103.152" y="-16" font-family="Gotham-Bold" font-size="14" fill="#000000">No changes made by Affilate </tspan>
      <tspan x="-112.889" y="1" font-family="Gotham-Bold" font-size="14" fill="#000000">affect the Master account video</tspan>
    </text>
    <path d="M72.5,588.5 L540.5,588.5" fill-opacity="0" stroke="#C5B4B4" stroke-width="2" stroke-dasharray="12,10"/>
  </g>
</svg>
