<?xml version="1.0" encoding="UTF-8"?>
<!DOCTYPE svg PUBLIC "-//W3C//DTD SVG 1.1//EN" "http://www.w3.org/Graphics/SVG/1.1/DTD/svg11.dtd">
<svg version="1.1" xmlns="http://www.w3.org/2000/svg" xmlns:xlink="http://www.w3.org/1999/xlink" x="0" y="0" width="612" height="200" viewBox="0, 0, 612, 200">
  <g id="Layer_1">
    <g>
      <path d="M144.5,48.5 L252.5,48.5 C259.127,48.5 264.5,53.873 264.5,60.5 L264.5,132.5 C264.5,139.127 259.127,144.5 252.5,144.5 L144.5,144.5 C137.873,144.5 132.5,139.127 132.5,132.5 L132.5,60.5 C132.5,53.873 137.873,48.5 144.5,48.5 z" fill="#FFFDFD" fill-opacity="0"/>
      <path d="M144.5,48.5 L252.5,48.5 C259.127,48.5 264.5,53.873 264.5,60.5 L264.5,132.5 C264.5,139.127 259.127,144.5 252.5,144.5 L144.5,144.5 C137.873,144.5 132.5,139.127 132.5,132.5 L132.5,60.5 C132.5,53.873 137.873,48.5 144.5,48.5 z" fill-opacity="0" stroke="#000000" stroke-width="1"/>
    </g>
    <text transform="matrix(1, 0, 0, 1, 198, 96)">
      <tspan x="-43.064" y="-12" font-family="Gotham-Bold" font-size="14" fill="#000000">Master adds</tspan>
      <tspan x="-32.074" y="5" font-family="Gotham-Bold" font-size="14" fill="#000000">Affiliates</tspan>
      <tspan x="-38.451" y="22" font-family="Gotham-Bold" font-size="14" fill="#000000">to Channel</tspan>
    </text>
    <g>
      <path d="M348.5,50.5 L456.5,50.5 C463.127,50.5 468.5,55.873 468.5,62.5 L468.5,134.5 C468.5,141.127 463.127,146.5 456.5,146.5 L348.5,146.5 C341.873,146.5 336.5,141.127 336.5,134.5 L336.5,62.5 C336.5,55.873 341.873,50.5 348.5,50.5 z" fill="#FFFDFD" fill-opacity="0"/>
      <path d="M348.5,50.5 L456.5,50.5 C463.127,50.5 468.5,55.873 468.5,62.5 L468.5,134.5 C468.5,141.127 463.127,146.5 456.5,146.5 L348.5,146.5 C341.873,146.5 336.5,141.127 336.5,134.5 L336.5,62.5 C336.5,55.873 341.873,50.5 348.5,50.5 z" fill-opacity="0" stroke="#000000" stroke-width="1"/>
    </g>
    <text transform="matrix(1, 0, 0, 1, 402, 96.5)">
      <tspan x="-28.56" y="-20.5" font-family="Gotham-Bold" font-size="14" fill="#000000">Affiliate </tspan>
      <tspan x="-37.247" y="-3.5" font-family="Gotham-Bold" font-size="14" fill="#000000">accepts or </tspan>
      <tspan x="-24.038" y="13.5" font-family="Gotham-Bold" font-size="14" fill="#000000">rejects</tspan>
      <tspan x="-31.052" y="30.5" font-family="Gotham-Bold" font-size="14" fill="#000000">Contract</tspan>
    </text>
    <g>
      <path d="M264.5,98.5 L327.1,98.5" fill-opacity="0" stroke="#000000" stroke-width="3"/>
      <path d="M325.1,102.7 L334.1,98.5 L325.1,94.3 M327.1,98.5 L334.1,98.5 M335.5,105.5 L335.5,91.5" fill-opacity="0" stroke="#000000" stroke-width="3" stroke-opacity="1"/>
    </g>
  </g>
</svg>
