<svg id="Layer_1" data-name="Layer 1" xmlns="http://www.w3.org/2000/svg" width="307.471" height="72" viewBox="0 0 307.471 72"><title>logo-bc-perform</title><g id="Perform"><path d="M172.208,50.28c0-6.235-4.45-10.265-11.332-10.265H148.8V69.4H153.8a2.014,2.014,0,0,0,2.017-2.018V60.8h4.446c.167,0,.325-.013.489-.018l4.729,7.409a3.807,3.807,0,0,0,3.165,1.242h5.609L167.3,59.118A9.7,9.7,0,0,0,172.208,50.28Zm-16.392-3.868h4.526c3.032,0,4.771,1.456,4.771,4.076,0,2.389-1.867,4-4.649,4h-4.648Z" transform="translate(-2 -2)" fill="#5f6263"/><path d="M263.144,50.28c0-6.235-4.45-10.265-11.332-10.265H239.741V69.4h4.994a2.014,2.014,0,0,0,2.017-2.018V60.8H251.2c.167,0,.325-.013.489-.018l4.729,7.409a3.807,3.807,0,0,0,3.165,1.242h5.609l-6.95-10.314A9.7,9.7,0,0,0,263.144,50.28Zm-16.392-3.868h4.526c3.032,0,4.771,1.456,4.771,4.076,0,2.389-1.868,4-4.649,4h-4.648Z" transform="translate(-2 -2)" fill="#5f6263"/><path d="M140.779,62.864h-13.39v-5.3h8.374a2.108,2.108,0,0,0,2.111-2.113V51.237H127.388v-5.1h13.026a2.207,2.207,0,0,0,.416,0,2.088,2.088,0,0,0,1.908-2.072V39.812H120.4V69.188h22.49V64.975A2.111,2.111,0,0,0,140.779,62.864Z" transform="translate(-2 -2)" fill="#5f6263"/><path d="M104.071,39.819H92V69.208h5a2.014,2.014,0,0,0,2.012-2.019V60.6h4.445c7.265,0,11.951-4.1,11.951-10.518C115.407,43.849,110.953,39.819,104.071,39.819Zm-.41,14.469H99.011V46.215h4.529c3.03,0,4.769,1.456,4.769,4.076C108.309,52.68,106.439,54.288,103.662,54.288Z" transform="translate(-2 -2)" fill="#5f6263"/><path d="M179.7,46.7v22.49h4.863a2.112,2.112,0,0,0,2.111-2.112h0v-4.2l.013-.012v-5.3h8.374a2.108,2.108,0,0,0,2.111-2.113V51.237H186.686v-5.1h13.026a1.275,1.275,0,0,0,.2.043,1.086,1.086,0,0,0,.212-.043,2.088,2.088,0,0,0,1.908-2.072V39.812H179.7Z" transform="translate(-2 -2)" fill="#5f6263"/><path d="M219.624,39.507A15.073,15.073,0,0,0,204.191,54.58c0,8.5,6.6,14.913,15.354,14.913a15.071,15.071,0,0,0,15.434-15.068C234.979,45.925,228.38,39.507,219.624,39.507Zm0,23.536c-4.69,0-8.219-3.669-8.219-8.618a8.124,8.124,0,0,1,8.14-8.464c4.682,0,8.212,3.675,8.212,8.619A8.118,8.118,0,0,1,219.624,63.043Z" transform="translate(-2 -2)" fill="#5f6263"/><path d="M298.321,39.814h-5.777a2.078,2.078,0,0,0-1.685.9v-.061L283.635,52.2l-7.223-11.544v.061a2.079,2.079,0,0,0-1.685-.9h-5.777V67.072a2.115,2.115,0,0,0,2.112,2.113h4.225V50.1l8.182,12.42h.167l8.349-12.42V67.072a2.115,2.115,0,0,0,2.112,2.113h4.226V39.814Z" transform="translate(-2 -2)" fill="#5f6263"/><path d="M302.563,40.64h-1.242v-.828H304.7v.828H303.46v3.252h-.9Z" transform="translate(-2 -2)" fill="#5f6162"/><path d="M305.391,39.812h.967l1.073,1.726,1.072-1.726h.968v4.08h-.892V41.229l-1.148,1.742h-.023l-1.137-1.726v2.646h-.88Z" transform="translate(-2 -2)" fill="#5f6162"/><path d="M59.639,38A17.645,17.645,0,1,1,42,20.237,17.7,17.7,0,0,1,59.639,38ZM81.1,41.829,64.845,70.166A8.422,8.422,0,0,1,58.254,74H25.746a8.428,8.428,0,0,1-6.587-3.834L2.911,41.829a8.513,8.513,0,0,1,0-7.663L19.16,5.838A8.428,8.428,0,0,1,25.746,2H58.254a8.422,8.422,0,0,1,6.591,3.838L81.1,34.166A8.61,8.61,0,0,1,81.1,41.829ZM68.681,38A26.68,26.68,0,1,0,42,64.855,26.773,26.773,0,0,0,68.681,38Z" transform="translate(-2 -2)" fill="#2b83df"/><path d="M157.8,9.02v.007l-.143-.007h-.017a6.306,6.306,0,0,0-5.287,2.545l-.262.35v-7.6h-1.839V25.562H152.1V16.232a5.285,5.285,0,0,1,5.35-5.5c3.116.017,4.873,2.053,4.883,5.264l0,9.559h1.835V15.706a6.876,6.876,0,0,0-1.72-4.8A6.27,6.27,0,0,0,157.8,9.02Z" transform="translate(-2 -2)" fill="#a0a0a0"/><polygon points="223.777 7.387 217.948 20.982 217.82 21.291 211.926 7.387 209.808 7.387 217.068 23.678 218.57 23.678 225.834 7.387 223.777 7.387" fill="#a0a0a0"/><path d="M190.968,21.713a6.9,6.9,0,0,1-5.1,2.475,6.506,6.506,0,0,1-6.365-6.721v-.051a6.389,6.389,0,0,1,6.246-6.653,6.968,6.968,0,0,1,5.16,2.558l.072.057.049.06,1.307-1.344-.107-.111a8.489,8.489,0,0,0-6.439-2.964l-.154.019V9.02a8.386,8.386,0,0,0-8.1,8.447v.072a8.317,8.317,0,0,0,8.226,8.39h.025a8.309,8.309,0,0,0,6.569-3.2l.059-.055.048-.06-1.3-1.145-.086.118-.108.123Z" transform="translate(-2 -2)" fill="#a0a0a0"/><path d="M194.137,17.467v.072a8.26,8.26,0,0,0,8.267,8.39,8.366,8.366,0,0,0,8.343-8.462v-.051a8.306,8.306,0,1,0-16.61.051Zm8.274-6.7a6.48,6.48,0,0,1,6.362,6.7v.072a6.374,6.374,0,0,1-6.3,6.649,6.5,6.5,0,0,1-6.377-6.721v-.051A6.383,6.383,0,0,1,202.411,10.763Z" transform="translate(-2 -2)" fill="#a0a0a0"/><path d="M169.723,4.318h-1.842V18.854h.008l.005.134a6.98,6.98,0,0,0,6.975,6.691h.635V23.822h-.475v0l-.2,0a5.126,5.126,0,0,1-5.106-5.127V11.1H175.5V9.387h-5.781Z" transform="translate(-2 -2)" fill="#a0a0a0"/><path d="M111.8,25.552h1.818V17.807a6.9,6.9,0,0,1,6.9-6.9h.158V9.086h-.158a8.727,8.727,0,0,0-8.719,8.729Z" transform="translate(-2 -2)" fill="#a0a0a0"/><rect x="122.197" y="7.387" width="1.839" height="16.174" fill="#a0a0a0"/><path d="M100.335,9.02a8.139,8.139,0,0,0-6.123,2.7l-.252.27V4.318H92V17.539a8.267,8.267,0,0,0,8.265,8.39,8.36,8.36,0,0,0,8.341-8.462v-.051A8.271,8.271,0,0,0,100.335,9.02Zm6.312,8.519a6.389,6.389,0,0,1-6.312,6.649,6.493,6.493,0,0,1-6.375-6.721v-.051a6.39,6.39,0,0,1,6.316-6.653,6.489,6.489,0,0,1,6.371,6.7Z" transform="translate(-2 -2)" fill="#a0a0a0"/><path d="M129.476,17.467v.072a8.265,8.265,0,0,0,8.268,8.39,8.181,8.181,0,0,0,6.274-2.855l.249-.294v1.845a6.92,6.92,0,0,1-6.9,6.9h-.155v1.818h.155a8.724,8.724,0,0,0,8.723-8.719v-7.21a8.306,8.306,0,1,0-16.61.051Zm8.268-6.7a6.485,6.485,0,0,1,6.378,6.7v.072a6.388,6.388,0,0,1-6.308,6.649,6.487,6.487,0,0,1-6.372-6.721v-.051A6.378,6.378,0,0,1,137.743,10.763Z" transform="translate(-2 -2)" fill="#a0a0a0"/><path d="M243.462,17.395c-.044-4.719-2.923-8.368-7.437-8.375-4.385,0-7.678,3.741-7.678,8.427v.06c0,5.018,3.676,8.422,7.925,8.422h.028a8.514,8.514,0,0,0,6.652-3.029l.056-.069.058-.051-1.306-1.134-.1.1a6.97,6.97,0,0,1-5.324,2.444,6.085,6.085,0,0,1-6.032-5.781l-.017-.149h13.116l.012-.144a3.4,3.4,0,0,0,.044-.439Zm-13.171-.824.017-.161c.4-3.264,2.679-5.648,5.6-5.681h.055c3.409,0,5.19,2.65,5.507,5.681l.011.161Z" transform="translate(-2 -2)" fill="#a0a0a0"/></g></svg>