<?xml version="1.0"?>
<svg version="1.1" xmlns="http://www.w3.org/2000/svg" xmlns:xlink="http://www.w3.org/1999/xlink" width="600" height="280">
    <desc iVinci="yes" version="4.6" gridStep="20" showGrid="no" snapToGrid="no" codePlatform="0"/>
    <g id="Layer1" name="Layer 1" opacity="1">
        <g id="Shape1">
            <desc shapeID="1" type="0" basicInfo-basicType="2" basicInfo-roundedRectRadius="12" basicInfo-polygonSides="6" basicInfo-starPoints="5" bounding="rect(-81,-26.5,162,53)" text="" font-familyName="Helvetica" font-pixelSize="20" font-bold="0" font-underline="0" font-alignment="1" strokeStyle="0" markerStart="0" markerEnd="0" shadowEnabled="0" shadowOffsetX="0" shadowOffsetY="2" shadowBlur="4" shadowOpacity="160" blurEnabled="0" blurRadius="4" transform="matrix(0.749004,0,0,1,100.364,56.5)" pers-center="0,0" pers-size="0,0" pers-start="0,0" pers-end="0,0" locked="0" mesh="" flag=""/>
            <path id="shapePath1" d="M39.6946,42 C39.6946,35.3726 43.719,30 48.6827,30 L152.045,30 C157.009,30 161.033,35.3726 161.033,42 L161.033,71 C161.033,77.627 157.009,83 152.045,83 L48.6827,83 C43.719,83 39.6946,77.627 39.6946,71 L39.6946,42 Z" style="stroke:#323232;stroke-opacity:1;stroke-width:1;stroke-linejoin:miter;stroke-miterlimit:2;stroke-linecap:round;fill-rule:evenodd;fill:#bebebe;fill-opacity:0.784314;"/>
        </g>
        <g id="Shape2">
            <desc shapeID="2" type="2" basicInfo-basicType="0" basicInfo-roundedRectRadius="12" basicInfo-polygonSides="6" basicInfo-starPoints="5" bounding="rect(-51.3068,-17,102.614,34)" text="GET Renditions" font-familyName="Helvetica" font-pixelSize="20" font-bold="0" font-underline="0" font-alignment="1" strokeStyle="0" markerStart="0" markerEnd="0" shadowEnabled="0" shadowOffsetX="0" shadowOffsetY="2" shadowBlur="4" shadowOpacity="160" blurEnabled="0" blurRadius="4" transform="matrix(1,0,0,1,100.738,57)" pers-center="0,0" pers-size="0,0" pers-start="0,0" pers-end="0,0" locked="0" mesh="" flag=""/>
            <path id="shapePath2" d="M91.5998,38.4707 C93.0256,39.2194 93.8979,40.5312 94.217,42.4062 L92.2931,42.4062 C92.0588,41.3581 91.5737,40.5947 90.8381,40.1162 C90.1024,39.6377 89.1746,39.3984 88.0548,39.3984 C86.7267,39.3984 85.6086,39.8965 84.7004,40.8926 C83.7922,41.8887 83.3381,43.373 83.3381,45.3457 C83.3381,47.0514 83.7124,48.4398 84.4611,49.5107 C85.2098,50.5817 86.4305,51.1172 88.1232,51.1172 C89.4188,51.1172 90.4914,50.7412 91.341,49.9892 C92.1906,49.2373 92.6252,48.0215 92.6447,46.3418 L88.1525,46.3418 L88.1525,44.7305 L94.4513,44.7305 L94.4513,52.4062 L93.2013,52.4062 L92.7326,50.5605 C92.075,51.2832 91.4923,51.7845 90.9845,52.0644 C90.1317,52.5462 89.0477,52.7871 87.7326,52.7871 C86.0334,52.7871 84.5718,52.237 83.3478,51.1367 C82.0132,49.7565 81.3459,47.862 81.3459,45.4531 C81.3459,43.0508 81.9969,41.14 83.299,39.7207 C84.536,38.3665 86.1375,37.6894 88.1037,37.6894 C89.4513,37.6894 90.6167,37.9499 91.5998,38.4707 M97.6349,38.0605 L108.094,38.0605 L108.094,39.8183 L99.5295,39.8183 L99.5295,44.1738 L107.449,44.1738 L107.449,45.834 L99.5295,45.834 L99.5295,50.6973 L108.24,50.6973 L108.24,52.4062 L97.6349,52.4062 L97.6349,38.0605 M121.217,38.0605 L121.217,39.7695 L116.383,39.7695 L116.383,52.4062 L114.41,52.4062 L114.41,39.7695 L109.576,39.7695 L109.576,38.0605 L121.217,38.0605 M61.7287,64.6328 C62.6401,64.6328 63.3612,64.4505 63.8918,64.0859 C64.4224,63.7213 64.6877,63.0638 64.6877,62.1133 C64.6877,61.0911 64.3166,60.3945 63.5744,60.0234 C63.1772,59.8281 62.6466,59.7305 61.9826,59.7305 L57.2365,59.7305 L57.2365,64.6328 L61.7287,64.6328 M55.2931,58.0605 L61.9338,58.0605 C63.0275,58.0605 63.9292,58.22 64.6388,58.5391 C65.9865,59.151 66.6603,60.2806 66.6603,61.9277 C66.6603,62.7871 66.4829,63.4902 66.1281,64.0371 C65.7733,64.584 65.2768,65.0234 64.6388,65.3555 C65.1987,65.5833 65.6203,65.8828 65.9035,66.2539 C66.1867,66.625 66.3446,67.2272 66.3771,68.0605 L66.4455,69.9844 C66.465,70.5312 66.5106,70.9381 66.5822,71.2051 C66.6994,71.6608 66.9077,71.9538 67.2072,72.084 L67.2072,72.4062 L64.8244,72.4062 C64.7593,72.2825 64.7072,72.123 64.6681,71.9277 C64.6291,71.7324 64.5965,71.3548 64.5705,70.7949 L64.4533,68.4023 C64.4077,67.4648 64.0594,66.8366 63.4084,66.5176 C63.0373,66.3418 62.4546,66.2539 61.6603,66.2539 L57.2365,66.2539 L57.2365,72.4062 L55.2931,72.4062 L55.2931,58.0605 M75.7756,62.2353 C76.4722,62.5836 77.0028,63.0345 77.3673,63.5879 C77.7189,64.1152 77.9533,64.7305 78.0705,65.4336 C78.1746,65.9154 78.2267,66.6836 78.2267,67.7383 L70.5607,67.7383 C70.5933,68.7995 70.8439,69.6507 71.3127,70.292 C71.7814,70.9333 72.5073,71.2539 73.4904,71.2539 C74.4084,71.2539 75.1408,70.9512 75.6877,70.3457 C76.0002,69.9941 76.2215,69.5872 76.3517,69.125 L78.0802,69.125 C78.0347,69.5091 77.8833,69.9372 77.6261,70.4092 C77.369,70.8812 77.0809,71.2669 76.7619,71.5664 C76.228,72.0872 75.5672,72.4388 74.7795,72.6211 C74.3563,72.7253 73.8778,72.7773 73.3439,72.7773 C72.0418,72.7773 70.9383,72.3037 70.0334,71.3564 C69.1284,70.4092 68.6759,69.0827 68.6759,67.3769 C68.6759,65.6973 69.1317,64.3333 70.0431,63.2851 C70.9546,62.237 72.146,61.7129 73.6173,61.7129 C74.3595,61.7129 75.0789,61.887 75.7756,62.2353 M76.4201,66.3418 C76.3485,65.5801 76.1824,64.9713 75.922,64.5156 C75.4403,63.6693 74.6362,63.2461 73.5099,63.2461 C72.7026,63.2461 72.0256,63.5374 71.4787,64.1201 C70.9318,64.7028 70.6421,65.4434 70.6095,66.3418 L76.4201,66.3418 M80.3713,61.9473 L82.0412,61.9473 L82.0412,63.4316 C82.536,62.8196 83.0601,62.3802 83.6134,62.1133 C84.1668,61.8463 84.7821,61.7129 85.4591,61.7129 C86.9435,61.7129 87.9461,62.2305 88.467,63.2656 C88.7534,63.832 88.8966,64.6426 88.8966,65.6973 L88.8966,72.4062 L87.1095,72.4062 L87.1095,65.8144 C87.1095,65.1764 87.0151,64.6621 86.8263,64.2715 C86.5138,63.6204 85.9474,63.2949 85.1271,63.2949 C84.7104,63.2949 84.3687,63.3372 84.1017,63.4219 C83.6199,63.5651 83.1968,63.8516 82.8322,64.2812 C82.5392,64.6263 82.3488,64.9827 82.2609,65.3506 C82.173,65.7184 82.1291,66.2441 82.1291,66.9277 L82.1291,72.4062 L80.3713,72.4062 L80.3713,61.9473 M93.3068,70.1113 C93.7821,70.8665 94.5438,71.2441 95.592,71.2441 C96.4058,71.2441 97.0747,70.8942 97.5988,70.1943 C98.1229,69.4945 98.3849,68.4902 98.3849,67.1816 C98.3849,65.86 98.1148,64.8818 97.5744,64.2471 C97.034,63.6123 96.3667,63.2949 95.5724,63.2949 C94.687,63.2949 93.9692,63.6335 93.4191,64.3105 C92.869,64.9876 92.5939,65.9837 92.5939,67.2988 C92.5939,68.4186 92.8315,69.3561 93.3068,70.1113 M97.2521,62.2695 C97.5646,62.4648 97.9194,62.8066 98.3166,63.2949 L98.3166,58.0117 L100.006,58.0117 L100.006,72.4062 L98.424,72.4062 L98.424,70.9512 C98.0138,71.5957 97.5288,72.0612 96.9689,72.3476 C96.409,72.6341 95.7677,72.7773 95.0451,72.7773 C93.8797,72.7773 92.8706,72.2874 92.0177,71.3076 C91.1649,70.3278 90.7384,69.0241 90.7384,67.3965 C90.7384,65.873 91.1274,64.553 91.9054,63.4365 C92.6834,62.32 93.7951,61.7617 95.2404,61.7617 C96.0412,61.7617 96.7118,61.931 97.2521,62.2695 M102.59,61.9961 L104.377,61.9961 L104.377,72.4062 L102.59,72.4062 L102.59,61.9961 M102.59,58.0605 L104.377,58.0605 L104.377,60.0527 L102.59,60.0527 L102.59,58.0605 M107.379,59.0273 L109.156,59.0273 L109.156,61.9473 L110.826,61.9473 L110.826,63.3828 L109.156,63.3828 L109.156,70.209 C109.156,70.5736 109.28,70.8177 109.528,70.9414 C109.664,71.013 109.892,71.0488 110.211,71.0488 C110.296,71.0488 110.387,71.0472 110.485,71.0439 C110.582,71.0407 110.696,71.0325 110.826,71.0195 L110.826,72.4062 C110.625,72.4648 110.415,72.5071 110.196,72.5332 C109.978,72.5592 109.742,72.5723 109.488,72.5723 C108.668,72.5723 108.111,72.3623 107.819,71.9424 C107.526,71.5225 107.379,70.9772 107.379,70.3066 L107.379,63.3828 L105.963,63.3828 L105.963,61.9473 L107.379,61.9473 L107.379,59.0273 M112.574,61.9961 L114.361,61.9961 L114.361,72.4062 L112.574,72.4062 L112.574,61.9961 M112.574,58.0605 L114.361,58.0605 L114.361,60.0527 L112.574,60.0527 L112.574,58.0605 M123.56,69.9502 C123.993,69.068 124.209,68.0866 124.209,67.0059 C124.209,66.0293 124.053,65.235 123.74,64.623 C123.246,63.6595 122.393,63.1777 121.182,63.1777 C120.108,63.1777 119.326,63.5879 118.838,64.4082 C118.35,65.2285 118.106,66.2181 118.106,67.3769 C118.106,68.4902 118.35,69.418 118.838,70.1601 C119.326,70.9023 120.101,71.2734 121.162,71.2734 C122.328,71.2734 123.127,70.8323 123.56,69.9502 M124.649,62.9922 C125.58,63.8906 126.045,65.2122 126.045,66.957 C126.045,68.6432 125.635,70.0364 124.815,71.1367 C123.994,72.237 122.722,72.7871 120.996,72.7871 C119.557,72.7871 118.415,72.3004 117.569,71.3271 C116.722,70.3538 116.299,69.0469 116.299,67.4062 C116.299,65.6484 116.745,64.2487 117.637,63.207 C118.529,62.1654 119.727,61.6445 121.231,61.6445 C122.578,61.6445 123.718,62.0937 124.649,62.9922 M128.121,61.9473 L129.791,61.9473 L129.791,63.4316 C130.286,62.8196 130.81,62.3802 131.363,62.1133 C131.917,61.8463 132.532,61.7129 133.209,61.7129 C134.694,61.7129 135.696,62.2305 136.217,63.2656 C136.503,63.832 136.647,64.6426 136.647,65.6973 L136.647,72.4062 L134.86,72.4062 L134.86,65.8144 C134.86,65.1764 134.765,64.6621 134.576,64.2715 C134.264,63.6204 133.697,63.2949 132.877,63.2949 C132.46,63.2949 132.119,63.3372 131.852,63.4219 C131.37,63.5651 130.947,63.8516 130.582,64.2812 C130.289,64.6263 130.099,64.9827 130.011,65.3506 C129.923,65.7184 129.879,66.2441 129.879,66.9277 L129.879,72.4062 L128.121,72.4062 L128.121,61.9473 M140.276,69.125 C140.328,69.7109 140.474,70.1601 140.715,70.4726 C141.158,71.0391 141.926,71.3223 143.02,71.3223 C143.671,71.3223 144.244,71.1807 144.738,70.8975 C145.233,70.6143 145.481,70.1764 145.481,69.584 C145.481,69.1348 145.282,68.793 144.885,68.5586 C144.631,68.4154 144.13,68.2493 143.381,68.0605 L141.985,67.709 C141.093,67.4876 140.435,67.2402 140.012,66.9668 C139.257,66.4915 138.879,65.834 138.879,64.9941 C138.879,64.0045 139.236,63.2038 139.948,62.5918 C140.661,61.9798 141.62,61.6738 142.824,61.6738 C144.4,61.6738 145.536,62.1361 146.233,63.0605 C146.669,63.6465 146.88,64.278 146.867,64.9551 L145.207,64.9551 C145.175,64.5579 145.035,64.1966 144.787,63.8711 C144.384,63.4088 143.684,63.1777 142.688,63.1777 C142.024,63.1777 141.521,63.3047 141.179,63.5586 C140.837,63.8125 140.666,64.1478 140.666,64.5644 C140.666,65.0202 140.891,65.3848 141.34,65.6582 C141.6,65.821 141.985,65.9642 142.492,66.0879 L143.654,66.3711 C144.917,66.6771 145.764,66.9733 146.194,67.2598 C146.877,67.709 147.219,68.4154 147.219,69.3789 C147.219,70.3099 146.866,71.1139 146.159,71.791 C145.453,72.4681 144.377,72.8066 142.932,72.8066 C141.376,72.8066 140.274,72.4534 139.626,71.7471 C138.978,71.0407 138.632,70.1667 138.586,69.125 L140.276,69.125 Z" style="stroke:none;fill-rule:nonzero;fill:#000000;fill-opacity:1;"/>
        </g>
        <g id="Shape3">
            <desc shapeID="3" type="0" basicInfo-basicType="1" basicInfo-roundedRectRadius="12" basicInfo-polygonSides="6" basicInfo-starPoints="5" bounding="rect(-6,-21,12,42)" text="" font-familyName="Helvetica" font-pixelSize="20" font-bold="0" font-underline="0" font-alignment="1" strokeStyle="0" markerStart="0" markerEnd="0" shadowEnabled="0" shadowOffsetX="0" shadowOffsetY="2" shadowBlur="4" shadowOpacity="160" blurEnabled="0" blurRadius="4" transform="matrix(0.749004,0,0,1,101.45,113)" pers-center="0,0" pers-size="0,0" pers-start="0,0" pers-end="0,0" groupID="1" locked="0" mesh="" flag=""/>
            <path id="shapePath3" d="M96.956,92 L105.944,92 L105.944,134 L96.956,134 L96.956,92 Z" style="stroke:none;fill-rule:evenodd;fill:#000000;fill-opacity:1;"/>
        </g>
        <g id="Shape4">
            <desc shapeID="4" type="0" basicInfo-basicType="0" basicInfo-roundedRectRadius="12" basicInfo-polygonSides="6" basicInfo-starPoints="5" bounding="rect(-15.5883,-13.1251,31.1767,26.2502)" text="" font-familyName="Helvetica" font-pixelSize="20" font-bold="0" font-underline="0" font-alignment="1" strokeStyle="0" markerStart="0" markerEnd="0" shadowEnabled="0" shadowOffsetX="0" shadowOffsetY="2" shadowBlur="4" shadowOpacity="160" blurEnabled="0" blurRadius="4" transform="matrix(-0.74894,-0.0131226,0.00982888,-0.999914,100.701,147.125)" pers-center="0,0" pers-size="0,0" pers-start="0,0" pers-end="0,0" groupID="1" locked="0" mesh="" flag=""/>
            <path id="shapePath4" d="M100.572,160.249 L94.8633,147.023 L89.1551,133.797 L100.83,134.001 L112.505,134.206 L106.538,147.227 L100.572,160.249 Z" style="stroke:none;fill-rule:evenodd;fill:#000000;fill-opacity:1;"/>
        </g>
        <g id="Shape5">
            <desc shapeID="5" type="0" basicInfo-basicType="2" basicInfo-roundedRectRadius="12" basicInfo-polygonSides="6" basicInfo-starPoints="5" bounding="rect(-302,-55.5,604,111)" text="" font-familyName="Helvetica" font-pixelSize="20" font-bold="0" font-underline="0" font-alignment="1" strokeStyle="0" markerStart="0" markerEnd="0" shadowEnabled="0" shadowOffsetX="0" shadowOffsetY="2" shadowBlur="4" shadowOpacity="160" blurEnabled="0" blurRadius="4" transform="matrix(0.311258,0,0,0.702703,101.45,211)" pers-center="0,0" pers-size="0,0" pers-start="0,0" pers-end="0,0" locked="0" mesh="" flag=""/>
            <path id="shapePath5" d="M7.45001,180.432 C7.45001,175.775 9.12253,172 11.1853,172 L191.715,172 C193.778,172 195.45,175.775 195.45,180.432 L195.45,241.568 C195.45,246.225 193.778,250 191.715,250 L11.1853,250 C9.12253,250 7.45001,246.225 7.45001,241.568 L7.45001,180.432 Z" style="stroke:#303030;stroke-opacity:1;stroke-width:1;stroke-linejoin:miter;stroke-miterlimit:2;stroke-linecap:round;fill-rule:evenodd;fill:#c4c4c4;fill-opacity:1;"/>
        </g>
        <g id="Shape6">
            <desc shapeID="6" type="2" basicInfo-basicType="0" basicInfo-roundedRectRadius="12" basicInfo-polygonSides="6" basicInfo-starPoints="5" bounding="rect(-88.757,-39.1919,177.514,78.3838)" text="For each Rendition id:&#10;DELETE Rendtiion" font-familyName="Helvetica" font-pixelSize="20" font-bold="0" font-underline="0" font-alignment="1" strokeStyle="0" markerStart="0" markerEnd="0" shadowEnabled="0" shadowOffsetX="0" shadowOffsetY="2" shadowBlur="4" shadowOpacity="160" blurEnabled="0" blurRadius="4" transform="matrix(1,0,0,1,102.199,211.808)" pers-center="0,0" pers-size="0,0" pers-start="0,0" pers-end="0,0" locked="0" mesh="" flag=""/>
            <path id="shapePath6" d="M19.5174,182.665 L29.4685,182.665 L29.4685,184.423 L21.4607,184.423 L21.4607,188.779 L28.5018,188.779 L28.5018,190.488 L21.4607,190.488 L21.4607,197.011 L19.5174,197.011 L19.5174,182.665 M37.8484,194.555 C38.2814,193.673 38.4978,192.691 38.4978,191.611 C38.4978,190.634 38.3416,189.84 38.0291,189.228 C37.5343,188.264 36.6814,187.783 35.4705,187.783 C34.3963,187.783 33.615,188.193 33.1268,189.013 C32.6385,189.833 32.3943,190.823 32.3943,191.982 C32.3943,193.095 32.6385,194.023 33.1268,194.765 C33.615,195.507 34.3898,195.878 35.451,195.878 C36.6163,195.878 37.4155,195.437 37.8484,194.555 M38.9373,187.597 C39.8683,188.495 40.3338,189.817 40.3338,191.562 C40.3338,193.248 39.9236,194.641 39.1033,195.742 C38.283,196.842 37.0102,197.392 35.285,197.392 C33.8461,197.392 32.7036,196.905 31.8572,195.932 C31.0109,194.959 30.5877,193.652 30.5877,192.011 C30.5877,190.253 31.0336,188.854 31.9256,187.812 C32.8175,186.77 34.0154,186.249 35.5193,186.249 C36.867,186.249 38.0063,186.699 38.9373,187.597 M42.4588,186.552 L44.1287,186.552 L44.1287,188.359 C44.2654,188.007 44.6007,187.579 45.1346,187.075 C45.6684,186.57 46.2837,186.318 46.9803,186.318 C47.0128,186.318 47.0682,186.321 47.1463,186.328 C47.2244,186.334 47.3579,186.347 47.5467,186.367 L47.5467,188.222 C47.4425,188.203 47.3465,188.189 47.2586,188.183 C47.1707,188.176 47.0747,188.173 46.9705,188.173 C46.0851,188.173 45.4047,188.458 44.9295,189.028 C44.4542,189.597 44.2166,190.253 44.2166,190.995 L44.2166,197.011 L42.4588,197.011 L42.4588,186.552 M61.1268,186.84 C61.8234,187.189 62.354,187.639 62.7186,188.193 C63.0701,188.72 63.3045,189.335 63.4217,190.038 C63.5258,190.52 63.5779,191.288 63.5779,192.343 L55.9119,192.343 C55.9445,193.404 56.1951,194.256 56.6639,194.897 C57.1326,195.538 57.8585,195.859 58.8416,195.859 C59.7596,195.859 60.492,195.556 61.0389,194.951 C61.3514,194.599 61.5727,194.192 61.7029,193.73 L63.4314,193.73 C63.3859,194.114 63.2345,194.542 62.9773,195.014 C62.7202,195.486 62.4321,195.872 62.1131,196.171 C61.5792,196.692 60.9184,197.044 60.1307,197.226 C59.7075,197.33 59.229,197.382 58.6951,197.382 C57.393,197.382 56.2895,196.909 55.3846,195.961 C54.4796,195.014 54.0271,193.688 54.0271,191.982 C54.0271,190.302 54.4829,188.938 55.3943,187.89 C56.3058,186.842 57.4972,186.318 58.9686,186.318 C59.7107,186.318 60.4301,186.492 61.1268,186.84 M61.7713,190.947 C61.6997,190.185 61.5337,189.576 61.2732,189.12 C60.7915,188.274 59.9874,187.851 58.8611,187.851 C58.0538,187.851 57.3768,188.142 56.8299,188.725 C56.283,189.308 55.9933,190.048 55.9607,190.947 L61.7713,190.947 M67.6268,195.429 C67.9978,195.722 68.4373,195.869 68.9451,195.869 C69.5636,195.869 70.1626,195.725 70.742,195.439 C71.7186,194.964 72.2068,194.186 72.2068,193.105 L72.2068,191.689 C71.992,191.826 71.7153,191.939 71.3768,192.031 C71.0382,192.122 70.7062,192.187 70.3807,192.226 L69.3162,192.363 C68.6782,192.447 68.1997,192.581 67.8807,192.763 C67.3403,193.069 67.0701,193.557 67.0701,194.228 C67.0701,194.736 67.2557,195.136 67.6268,195.429 M71.3279,190.673 C71.7316,190.621 72.0018,190.452 72.1385,190.165 C72.2166,190.009 72.2557,189.785 72.2557,189.492 C72.2557,188.893 72.0424,188.458 71.616,188.188 C71.1896,187.918 70.5792,187.783 69.785,187.783 C68.867,187.783 68.216,188.03 67.8318,188.525 C67.617,188.798 67.477,189.205 67.4119,189.745 L65.7713,189.745 C65.8038,188.456 66.2221,187.56 67.0262,187.055 C67.8302,186.55 68.7628,186.298 69.824,186.298 C71.0545,186.298 72.0538,186.533 72.8221,187.001 C73.5838,187.47 73.9646,188.199 73.9646,189.189 L73.9646,195.214 C73.9646,195.397 74.0021,195.543 74.077,195.654 C74.1518,195.764 74.3097,195.82 74.5506,195.82 C74.6287,195.82 74.7166,195.815 74.8143,195.805 C74.9119,195.795 75.0161,195.781 75.1268,195.761 L75.1268,197.06 C74.8533,197.138 74.645,197.187 74.5018,197.206 C74.3585,197.226 74.1632,197.236 73.9158,197.236 C73.3103,197.236 72.8709,197.021 72.5975,196.591 C72.4542,196.363 72.3533,196.041 72.2947,195.624 C71.9367,196.093 71.4223,196.5 70.7518,196.845 C70.0812,197.19 69.3422,197.363 68.535,197.363 C67.5649,197.363 66.7723,197.068 66.157,196.479 C65.5418,195.89 65.2342,195.152 65.2342,194.267 C65.2342,193.297 65.5369,192.545 66.1424,192.011 C66.7478,191.477 67.5421,191.148 68.5252,191.025 L71.3279,190.673 M83.741,187.109 C84.4799,187.682 84.9243,188.668 85.074,190.068 L83.365,190.068 C83.2609,189.423 83.0232,188.888 82.6521,188.461 C82.2811,188.035 81.6853,187.822 80.865,187.822 C79.7452,187.822 78.9445,188.369 78.4627,189.462 C78.1502,190.172 77.9939,191.048 77.9939,192.089 C77.9939,193.137 78.2153,194.02 78.658,194.736 C79.1007,195.452 79.7973,195.81 80.7478,195.81 C81.477,195.81 82.0548,195.587 82.4812,195.141 C82.9077,194.695 83.2023,194.085 83.365,193.31 L85.074,193.31 C84.8787,194.697 84.3904,195.711 83.6092,196.352 C82.8279,196.993 81.8286,197.314 80.6111,197.314 C79.2439,197.314 78.1535,196.814 77.3396,195.815 C76.5258,194.815 76.1189,193.567 76.1189,192.07 C76.1189,190.234 76.5649,188.805 77.4568,187.783 C78.3488,186.76 79.4848,186.249 80.865,186.249 C82.0434,186.249 83.0021,186.536 83.741,187.109 M86.8318,182.617 L88.5896,182.617 L88.5896,187.968 C89.0063,187.441 89.3807,187.07 89.7127,186.855 C90.2791,186.484 90.9855,186.298 91.8318,186.298 C93.3488,186.298 94.3774,186.829 94.9178,187.89 C95.2107,188.469 95.3572,189.273 95.3572,190.302 L95.3572,197.011 L93.5506,197.011 L93.5506,190.419 C93.5506,189.651 93.4529,189.088 93.2576,188.73 C92.9386,188.157 92.3396,187.87 91.4607,187.87 C90.7316,187.87 90.0708,188.121 89.4783,188.622 C88.8859,189.124 88.5896,190.071 88.5896,191.464 L88.5896,197.011 L86.8318,197.011 L86.8318,182.617 M110.392,189.238 C111.304,189.238 112.025,189.055 112.555,188.691 C113.086,188.326 113.351,187.669 113.351,186.718 C113.351,185.696 112.98,184.999 112.238,184.628 C111.841,184.433 111.31,184.335 110.646,184.335 L105.9,184.335 L105.9,189.238 L110.392,189.238 M103.957,182.665 L110.597,182.665 C111.691,182.665 112.593,182.825 113.303,183.144 C114.65,183.756 115.324,184.885 115.324,186.533 C115.324,187.392 115.147,188.095 114.792,188.642 C114.437,189.189 113.941,189.628 113.303,189.96 C113.862,190.188 114.284,190.488 114.567,190.859 C114.85,191.23 115.008,191.832 115.041,192.665 L115.109,194.589 C115.129,195.136 115.174,195.543 115.246,195.81 C115.363,196.266 115.571,196.559 115.871,196.689 L115.871,197.011 L113.488,197.011 C113.423,196.887 113.371,196.728 113.332,196.533 C113.293,196.337 113.26,195.96 113.234,195.4 L113.117,193.007 C113.071,192.07 112.723,191.441 112.072,191.122 C111.701,190.947 111.118,190.859 110.324,190.859 L105.9,190.859 L105.9,197.011 L103.957,197.011 L103.957,182.665 M124.439,186.84 C125.136,187.189 125.666,187.639 126.031,188.193 C126.383,188.72 126.617,189.335 126.734,190.038 C126.838,190.52 126.89,191.288 126.89,192.343 L119.224,192.343 C119.257,193.404 119.508,194.256 119.976,194.897 C120.445,195.538 121.171,195.859 122.154,195.859 C123.072,195.859 123.804,195.556 124.351,194.951 C124.664,194.599 124.885,194.192 125.015,193.73 L126.744,193.73 C126.698,194.114 126.547,194.542 126.29,195.014 C126.033,195.486 125.745,195.872 125.426,196.171 C124.892,196.692 124.231,197.044 123.443,197.226 C123.02,197.33 122.541,197.382 122.008,197.382 C120.706,197.382 119.602,196.909 118.697,195.961 C117.792,195.014 117.34,193.688 117.34,191.982 C117.34,190.302 117.795,188.938 118.707,187.89 C119.618,186.842 120.81,186.318 122.281,186.318 C123.023,186.318 123.743,186.492 124.439,186.84 M125.084,190.947 C125.012,190.185 124.846,189.576 124.586,189.12 C124.104,188.274 123.3,187.851 122.174,187.851 C121.366,187.851 120.689,188.142 120.142,188.725 C119.596,189.308 119.306,190.048 119.273,190.947 L125.084,190.947 M129.035,186.552 L130.705,186.552 L130.705,188.036 C131.2,187.425 131.724,186.985 132.277,186.718 C132.831,186.451 133.446,186.318 134.123,186.318 C135.607,186.318 136.61,186.835 137.131,187.87 C137.417,188.437 137.56,189.247 137.56,190.302 L137.56,197.011 L135.773,197.011 L135.773,190.419 C135.773,189.781 135.679,189.267 135.49,188.876 C135.178,188.225 134.611,187.9 133.791,187.9 C133.374,187.9 133.032,187.942 132.765,188.027 C132.284,188.17 131.86,188.456 131.496,188.886 C131.203,189.231 131.012,189.588 130.925,189.955 C130.837,190.323 130.793,190.849 130.793,191.533 L130.793,197.011 L129.035,197.011 L129.035,186.552 M141.971,194.716 C142.446,195.471 143.207,195.849 144.256,195.849 C145.069,195.849 145.738,195.499 146.262,194.799 C146.787,194.099 147.049,193.095 147.049,191.786 C147.049,190.465 146.778,189.487 146.238,188.852 C145.698,188.217 145.03,187.9 144.236,187.9 C143.351,187.9 142.633,188.238 142.083,188.915 C141.533,189.592 141.258,190.589 141.258,191.904 C141.258,193.023 141.495,193.961 141.971,194.716 M145.916,186.874 C146.228,187.07 146.583,187.411 146.98,187.9 L146.98,182.617 L148.67,182.617 L148.67,197.011 L147.088,197.011 L147.088,195.556 C146.678,196.201 146.193,196.666 145.633,196.953 C145.073,197.239 144.431,197.382 143.709,197.382 C142.543,197.382 141.534,196.892 140.681,195.912 C139.829,194.933 139.402,193.629 139.402,192.001 C139.402,190.478 139.791,189.158 140.569,188.041 C141.347,186.925 142.459,186.367 143.904,186.367 C144.705,186.367 145.375,186.536 145.916,186.874 M151.254,186.601 L153.041,186.601 L153.041,197.011 L151.254,197.011 L151.254,186.601 M151.254,182.665 L153.041,182.665 L153.041,184.658 L151.254,184.658 L151.254,182.665 M156.043,183.632 L157.82,183.632 L157.82,186.552 L159.49,186.552 L159.49,187.988 L157.82,187.988 L157.82,194.814 C157.82,195.178 157.944,195.423 158.191,195.546 C158.328,195.618 158.556,195.654 158.875,195.654 C158.959,195.654 159.051,195.652 159.148,195.649 C159.246,195.646 159.36,195.637 159.49,195.624 L159.49,197.011 C159.288,197.07 159.078,197.112 158.86,197.138 C158.642,197.164 158.406,197.177 158.152,197.177 C157.332,197.177 156.775,196.967 156.482,196.547 C156.189,196.127 156.043,195.582 156.043,194.912 L156.043,187.988 L154.627,187.988 L154.627,186.552 L156.043,186.552 L156.043,183.632 M161.238,186.601 L163.025,186.601 L163.025,197.011 L161.238,197.011 L161.238,186.601 M161.238,182.665 L163.025,182.665 L163.025,184.658 L161.238,184.658 L161.238,182.665 M172.223,194.555 C172.656,193.673 172.873,192.691 172.873,191.611 C172.873,190.634 172.717,189.84 172.404,189.228 C171.909,188.264 171.056,187.783 169.846,187.783 C168.771,187.783 167.99,188.193 167.502,189.013 C167.013,189.833 166.769,190.823 166.769,191.982 C166.769,193.095 167.013,194.023 167.502,194.765 C167.99,195.507 168.765,195.878 169.826,195.878 C170.991,195.878 171.79,195.437 172.223,194.555 M173.312,187.597 C174.243,188.495 174.709,189.817 174.709,191.562 C174.709,193.248 174.299,194.641 173.478,195.742 C172.658,196.842 171.385,197.392 169.66,197.392 C168.221,197.392 167.079,196.905 166.232,195.932 C165.386,194.959 164.963,193.652 164.963,192.011 C164.963,190.253 165.409,188.854 166.301,187.812 C167.193,186.77 168.39,186.249 169.894,186.249 C171.242,186.249 172.381,186.699 173.312,187.597 M176.785,186.552 L178.455,186.552 L178.455,188.036 C178.95,187.425 179.474,186.985 180.027,186.718 C180.581,186.451 181.196,186.318 181.873,186.318 C183.357,186.318 184.36,186.835 184.881,187.87 C185.167,188.437 185.31,189.247 185.31,190.302 L185.31,197.011 L183.523,197.011 L183.523,190.419 C183.523,189.781 183.429,189.267 183.24,188.876 C182.928,188.225 182.361,187.9 181.541,187.9 C181.124,187.9 180.782,187.942 180.515,188.027 C180.034,188.17 179.61,188.456 179.246,188.886 C178.953,189.231 178.762,189.588 178.675,189.955 C178.587,190.323 178.543,190.849 178.543,191.533 L178.543,197.011 L176.785,197.011 L176.785,186.552 M92.9412,206.601 L94.7283,206.601 L94.7283,217.011 L92.9412,217.011 L92.9412,206.601 M92.9412,202.665 L94.7283,202.665 L94.7283,204.658 L92.9412,204.658 L92.9412,202.665 M99.2049,214.716 C99.6801,215.471 100.442,215.849 101.49,215.849 C102.304,215.849 102.973,215.499 103.497,214.799 C104.021,214.099 104.283,213.095 104.283,211.787 C104.283,210.465 104.013,209.487 103.472,208.852 C102.932,208.217 102.265,207.9 101.471,207.9 C100.585,207.9 99.8673,208.238 99.3172,208.915 C98.7671,209.592 98.492,210.589 98.492,211.904 C98.492,213.023 98.7296,213.961 99.2049,214.716 M103.15,206.874 C103.463,207.07 103.818,207.412 104.215,207.9 L104.215,202.617 L105.904,202.617 L105.904,217.011 L104.322,217.011 L104.322,215.556 C103.912,216.201 103.427,216.666 102.867,216.953 C102.307,217.239 101.666,217.382 100.943,217.382 C99.7778,217.382 98.7687,216.892 97.9158,215.912 C97.063,214.933 96.6365,213.629 96.6365,212.001 C96.6365,210.478 97.0255,209.158 97.8035,208.041 C98.5815,206.925 99.6932,206.367 101.138,206.367 C101.939,206.367 102.61,206.536 103.15,206.874 M109.416,206.689 L111.457,206.689 L111.457,208.818 L109.416,208.818 L109.416,206.689 M109.416,214.882 L111.457,214.882 L111.457,217.011 L109.416,217.011 L109.416,214.882 M25.3865,235.351 C26.0441,235.351 26.5844,235.283 27.0076,235.146 C27.7628,234.892 28.3813,234.404 28.8631,233.681 C29.2472,233.102 29.5239,232.359 29.6932,231.454 C29.7908,230.914 29.8396,230.413 29.8396,229.951 C29.8396,228.173 29.4865,226.793 28.7801,225.81 C28.0737,224.827 26.936,224.335 25.367,224.335 L21.9197,224.335 L21.9197,235.351 L25.3865,235.351 M19.9666,222.665 L25.7771,222.665 C27.7498,222.665 29.2797,223.365 30.367,224.765 C31.337,226.028 31.8221,227.646 31.8221,229.619 C31.8221,231.142 31.5356,232.519 30.9627,233.749 C29.9536,235.924 28.2185,237.011 25.7576,237.011 L19.9666,237.011 L19.9666,222.665 M34.5018,222.665 L44.9607,222.665 L44.9607,224.423 L36.3963,224.423 L36.3963,228.779 L44.3162,228.779 L44.3162,230.439 L36.3963,230.439 L36.3963,235.302 L45.1072,235.302 L45.1072,237.011 L34.5018,237.011 L34.5018,222.665 M47.6443,222.665 L49.5877,222.665 L49.5877,235.302 L56.8533,235.302 L56.8533,237.011 L47.6443,237.011 L47.6443,222.665 M58.9393,222.665 L69.3982,222.665 L69.3982,224.423 L60.8338,224.423 L60.8338,228.779 L68.7537,228.779 L68.7537,230.439 L60.8338,230.439 L60.8338,235.302 L69.5447,235.302 L69.5447,237.011 L58.9393,237.011 L58.9393,222.665 M82.5213,222.665 L82.5213,224.374 L77.6873,224.374 L77.6873,237.011 L75.7146,237.011 L75.7146,224.374 L70.8807,224.374 L70.8807,222.665 L82.5213,222.665 M84.4705,222.665 L94.9295,222.665 L94.9295,224.423 L86.365,224.423 L86.365,228.779 L94.285,228.779 L94.285,230.439 L86.365,230.439 L86.365,235.302 L95.076,235.302 L95.076,237.011 L84.4705,237.011 L84.4705,222.665 M109.83,229.238 C110.741,229.238 111.462,229.055 111.993,228.691 C112.524,228.326 112.789,227.669 112.789,226.718 C112.789,225.696 112.418,224.999 111.676,224.628 C111.278,224.433 110.748,224.335 110.084,224.335 L105.338,224.335 L105.338,229.238 L109.83,229.238 M103.394,222.665 L110.035,222.665 C111.129,222.665 112.03,222.825 112.74,223.144 C114.088,223.756 114.762,224.885 114.762,226.533 C114.762,227.392 114.584,228.095 114.229,228.642 C113.874,229.189 113.378,229.628 112.74,229.96 C113.3,230.188 113.721,230.488 114.005,230.859 C114.288,231.23 114.446,231.832 114.478,232.665 L114.547,234.589 C114.566,235.136 114.612,235.543 114.683,235.81 C114.801,236.266 115.009,236.559 115.308,236.689 L115.308,237.011 L112.926,237.011 C112.86,236.887 112.808,236.728 112.769,236.533 C112.73,236.337 112.698,235.96 112.672,235.4 L112.554,233.007 C112.509,232.07 112.161,231.441 111.51,231.122 C111.138,230.947 110.556,230.859 109.762,230.859 L105.338,230.859 L105.338,237.011 L103.394,237.011 L103.394,222.665 M123.877,226.84 C124.573,227.189 125.104,227.639 125.469,228.193 C125.82,228.72 126.054,229.335 126.172,230.038 C126.276,230.52 126.328,231.288 126.328,232.343 L118.662,232.343 C118.694,233.404 118.945,234.256 119.414,234.897 C119.883,235.538 120.609,235.859 121.592,235.859 C122.51,235.859 123.242,235.556 123.789,234.951 C124.101,234.599 124.323,234.192 124.453,233.73 L126.181,233.73 C126.136,234.114 125.985,234.542 125.727,235.014 C125.47,235.486 125.182,235.872 124.863,236.171 C124.329,236.692 123.668,237.044 122.881,237.226 C122.457,237.33 121.979,237.382 121.445,237.382 C120.143,237.382 119.04,236.909 118.135,235.961 C117.23,235.014 116.777,233.688 116.777,231.982 C116.777,230.302 117.233,228.938 118.144,227.89 C119.056,226.842 120.247,226.318 121.719,226.318 C122.461,226.318 123.18,226.492 123.877,226.84 M124.521,230.947 C124.45,230.185 124.284,229.576 124.023,229.12 C123.541,228.274 122.737,227.851 121.611,227.851 C120.804,227.851 120.127,228.142 119.58,228.725 C119.033,229.308 118.743,230.048 118.711,230.947 L124.521,230.947 M128.472,226.552 L130.142,226.552 L130.142,228.037 C130.637,227.425 131.161,226.985 131.715,226.718 C132.268,226.451 132.883,226.318 133.56,226.318 C135.045,226.318 136.047,226.835 136.568,227.87 C136.855,228.437 136.998,229.247 136.998,230.302 L136.998,237.011 L135.211,237.011 L135.211,230.419 C135.211,229.781 135.116,229.267 134.928,228.876 C134.615,228.225 134.049,227.9 133.228,227.9 C132.812,227.9 132.47,227.942 132.203,228.027 C131.721,228.17 131.298,228.456 130.933,228.886 C130.64,229.231 130.45,229.588 130.362,229.955 C130.274,230.323 130.23,230.849 130.23,231.533 L130.23,237.011 L128.472,237.011 L128.472,226.552 M141.408,234.716 C141.883,235.471 142.645,235.849 143.693,235.849 C144.507,235.849 145.176,235.499 145.7,234.799 C146.224,234.099 146.486,233.095 146.486,231.787 C146.486,230.465 146.216,229.487 145.676,228.852 C145.135,228.217 144.468,227.9 143.674,227.9 C142.788,227.9 142.07,228.238 141.52,228.915 C140.97,229.592 140.695,230.589 140.695,231.904 C140.695,233.023 140.933,233.961 141.408,234.716 M145.353,226.874 C145.666,227.07 146.021,227.412 146.418,227.9 L146.418,222.617 L148.107,222.617 L148.107,237.011 L146.525,237.011 L146.525,235.556 C146.115,236.201 145.63,236.666 145.07,236.953 C144.51,237.239 143.869,237.382 143.146,237.382 C141.981,237.382 140.972,236.892 140.119,235.912 C139.266,234.933 138.84,233.629 138.84,232.001 C138.84,230.478 139.229,229.158 140.007,228.041 C140.785,226.925 141.896,226.367 143.342,226.367 C144.142,226.367 144.813,226.536 145.353,226.874 M151.043,223.632 L152.82,223.632 L152.82,226.552 L154.49,226.552 L154.49,227.988 L152.82,227.988 L152.82,234.814 C152.82,235.178 152.944,235.423 153.191,235.546 C153.328,235.618 153.556,235.654 153.875,235.654 C153.959,235.654 154.051,235.652 154.148,235.649 C154.246,235.646 154.36,235.637 154.49,235.624 L154.49,237.011 C154.288,237.07 154.078,237.112 153.86,237.138 C153.642,237.164 153.406,237.177 153.152,237.177 C152.332,237.177 151.775,236.967 151.482,236.547 C151.189,236.127 151.043,235.582 151.043,234.912 L151.043,227.988 L149.627,227.988 L149.627,226.552 L151.043,226.552 L151.043,223.632 M156.238,226.601 L158.025,226.601 L158.025,237.011 L156.238,237.011 L156.238,226.601 M156.238,222.665 L158.025,222.665 L158.025,224.658 L156.238,224.658 L156.238,222.665 M160.676,226.601 L162.463,226.601 L162.463,237.011 L160.676,237.011 L160.676,226.601 M160.676,222.665 L162.463,222.665 L162.463,224.658 L160.676,224.658 L160.676,222.665 M171.661,234.555 C172.094,233.673 172.31,232.691 172.31,231.611 C172.31,230.634 172.154,229.84 171.842,229.228 C171.347,228.264 170.494,227.783 169.283,227.783 C168.209,227.783 167.428,228.193 166.939,229.013 C166.451,229.833 166.207,230.823 166.207,231.982 C166.207,233.095 166.451,234.023 166.939,234.765 C167.428,235.507 168.202,235.878 169.263,235.878 C170.429,235.878 171.228,235.437 171.661,234.555 M172.75,227.597 C173.681,228.495 174.146,229.817 174.146,231.562 C174.146,233.248 173.736,234.641 172.916,235.742 C172.096,236.842 170.823,237.392 169.097,237.392 C167.659,237.392 166.516,236.905 165.67,235.932 C164.823,234.959 164.4,233.652 164.4,232.011 C164.4,230.253 164.846,228.854 165.738,227.812 C166.63,226.77 167.828,226.249 169.332,226.249 C170.679,226.249 171.819,226.699 172.75,227.597 M176.222,226.552 L177.892,226.552 L177.892,228.037 C178.387,227.425 178.911,226.985 179.465,226.718 C180.018,226.451 180.633,226.318 181.31,226.318 C182.795,226.318 183.797,226.835 184.318,227.87 C184.605,228.437 184.748,229.247 184.748,230.302 L184.748,237.011 L182.961,237.011 L182.961,230.419 C182.961,229.781 182.866,229.267 182.678,228.876 C182.365,228.225 181.799,227.9 180.978,227.9 C180.562,227.9 180.22,227.942 179.953,228.027 C179.471,228.17 179.048,228.456 178.683,228.886 C178.39,229.231 178.2,229.588 178.112,229.955 C178.024,230.323 177.98,230.849 177.98,231.533 L177.98,237.011 L176.222,237.011 L176.222,226.552 Z" style="stroke:#303030;stroke-opacity:1;stroke-width:1;stroke-linejoin:miter;stroke-miterlimit:2;stroke-linecap:round;fill-rule:nonzero;fill:#000000;fill-opacity:1;"/>
        </g>
        <g id="Shape7">
            <desc shapeID="7" type="0" basicInfo-basicType="1" basicInfo-roundedRectRadius="12" basicInfo-polygonSides="6" basicInfo-starPoints="5" bounding="rect(-6,-21,12,42)" text="" font-familyName="Helvetica" font-pixelSize="20" font-bold="0" font-underline="0" font-alignment="1" strokeStyle="0" markerStart="0" markerEnd="0" shadowEnabled="0" shadowOffsetX="0" shadowOffsetY="2" shadowBlur="4" shadowOpacity="160" blurEnabled="0" blurRadius="4" transform="matrix(0.749004,0,0,1,301.67,113)" pers-center="0,0" pers-size="0,0" pers-start="0,0" pers-end="0,0" groupID="2" locked="0" mesh="" flag=""/>
            <path id="shapePath7" d="M297.176,92 L306.164,92 L306.164,134 L297.176,134 L297.176,92 Z" style="stroke:none;fill-rule:evenodd;fill:#000000;fill-opacity:1;"/>
        </g>
        <g id="Shape8">
            <desc shapeID="8" type="0" basicInfo-basicType="0" basicInfo-roundedRectRadius="12" basicInfo-polygonSides="6" basicInfo-starPoints="5" bounding="rect(-15.5883,-13.1251,31.1767,26.2502)" text="" font-familyName="Helvetica" font-pixelSize="20" font-bold="0" font-underline="0" font-alignment="1" strokeStyle="0" markerStart="0" markerEnd="0" shadowEnabled="0" shadowOffsetX="0" shadowOffsetY="2" shadowBlur="4" shadowOpacity="160" blurEnabled="0" blurRadius="4" transform="matrix(-0.74894,-0.0131226,0.00982888,-0.999914,300.921,147.125)" pers-center="0,0" pers-size="0,0" pers-start="0,0" pers-end="0,0" groupID="2" locked="0" mesh="" flag=""/>
            <path id="shapePath8" d="M300.792,160.249 L295.083,147.023 L289.375,133.797 L301.05,134.001 L312.725,134.206 L306.758,147.227 L300.792,160.249 Z" style="stroke:none;fill-rule:evenodd;fill:#000000;fill-opacity:1;"/>
        </g>
        <g id="Shape9">
            <desc shapeID="9" type="0" basicInfo-basicType="2" basicInfo-roundedRectRadius="12" basicInfo-polygonSides="6" basicInfo-starPoints="5" bounding="rect(-302,-55.5,604,111)" text="" font-familyName="Helvetica" font-pixelSize="20" font-bold="0" font-underline="0" font-alignment="1" strokeStyle="0" markerStart="0" markerEnd="0" shadowEnabled="0" shadowOffsetX="0" shadowOffsetY="2" shadowBlur="4" shadowOpacity="160" blurEnabled="0" blurRadius="4" transform="matrix(0.311258,0,0,0.702703,300.086,211)" pers-center="0,0" pers-size="0,0" pers-start="0,0" pers-end="0,0" locked="0" mesh="" flag=""/>
            <path id="shapePath9" d="M206.086,180.432 C206.086,175.775 207.759,172 209.821,172 L390.351,172 C392.414,172 394.086,175.775 394.086,180.432 L394.086,241.568 C394.086,246.225 392.414,250 390.351,250 L209.821,250 C207.759,250 206.086,246.225 206.086,241.568 L206.086,180.432 Z" style="stroke:#303030;stroke-opacity:1;stroke-width:1;stroke-linejoin:miter;stroke-miterlimit:2;stroke-linecap:round;fill-rule:evenodd;fill:#c4c4c4;fill-opacity:1;"/>
        </g>
        <g id="Shape10">
            <desc shapeID="10" type="2" basicInfo-basicType="0" basicInfo-roundedRectRadius="12" basicInfo-polygonSides="6" basicInfo-starPoints="5" bounding="rect(-88.757,-39.1919,177.514,78.3838)" text="For each Poster id:&#10;&#10;DELETE Poster" font-familyName="Helvetica" font-pixelSize="20" font-bold="0" font-underline="0" font-alignment="1" strokeStyle="0" markerStart="0" markerEnd="0" shadowEnabled="0" shadowOffsetX="0" shadowOffsetY="2" shadowBlur="4" shadowOpacity="160" blurEnabled="0" blurRadius="4" transform="matrix(1,0,0,1,300.835,211.808)" pers-center="0,0" pers-size="0,0" pers-start="0,0" pers-end="0,0" locked="0" mesh="" flag=""/>
            <path id="shapePath10" d="M218.153,182.665 L228.105,182.665 L228.105,184.423 L220.097,184.423 L220.097,188.779 L227.138,188.779 L227.138,190.488 L220.097,190.488 L220.097,197.011 L218.153,197.011 L218.153,182.665 M236.485,194.555 C236.917,193.673 237.134,192.691 237.134,191.611 C237.134,190.634 236.978,189.84 236.665,189.228 C236.17,188.264 235.318,187.783 234.107,187.783 C233.032,187.783 232.251,188.193 231.763,189.013 C231.275,189.833 231.03,190.823 231.03,191.982 C231.03,193.095 231.275,194.023 231.763,194.765 C232.251,195.507 233.026,195.878 234.087,195.878 C235.252,195.878 236.052,195.437 236.485,194.555 M237.573,187.597 C238.504,188.495 238.97,189.817 238.97,191.562 C238.97,193.248 238.56,194.641 237.739,195.742 C236.919,196.842 235.646,197.392 233.921,197.392 C232.482,197.392 231.34,196.905 230.493,195.932 C229.647,194.959 229.224,193.652 229.224,192.011 C229.224,190.253 229.67,188.854 230.562,187.812 C231.454,186.77 232.652,186.249 234.155,186.249 C235.503,186.249 236.642,186.699 237.573,187.597 M241.095,186.552 L242.765,186.552 L242.765,188.359 C242.902,188.007 243.237,187.579 243.771,187.075 C244.305,186.57 244.92,186.318 245.616,186.318 C245.649,186.318 245.704,186.321 245.782,186.327 C245.861,186.334 245.994,186.347 246.183,186.367 L246.183,188.222 C246.079,188.202 245.983,188.189 245.895,188.183 C245.807,188.176 245.711,188.173 245.607,188.173 C244.721,188.173 244.041,188.458 243.566,189.028 C243.09,189.597 242.853,190.253 242.853,190.995 L242.853,197.011 L241.095,197.011 L241.095,186.552 M259.763,186.84 C260.459,187.189 260.99,187.639 261.355,188.193 C261.706,188.72 261.941,189.335 262.058,190.038 C262.162,190.52 262.214,191.288 262.214,192.343 L254.548,192.343 C254.581,193.404 254.831,194.256 255.3,194.897 C255.769,195.538 256.495,195.859 257.478,195.859 C258.396,195.859 259.128,195.556 259.675,194.951 C259.987,194.599 260.209,194.192 260.339,193.73 L262.068,193.73 C262.022,194.114 261.871,194.542 261.613,195.014 C261.356,195.486 261.068,195.872 260.749,196.171 C260.215,196.692 259.555,197.044 258.767,197.226 C258.344,197.33 257.865,197.382 257.331,197.382 C256.029,197.382 254.926,196.909 254.021,195.961 C253.116,195.014 252.663,193.688 252.663,191.982 C252.663,190.302 253.119,188.938 254.03,187.89 C254.942,186.842 256.133,186.318 257.605,186.318 C258.347,186.318 259.066,186.492 259.763,186.84 M260.407,190.947 C260.336,190.185 260.17,189.576 259.909,189.12 C259.428,188.274 258.624,187.851 257.497,187.851 C256.69,187.851 256.013,188.142 255.466,188.725 C254.919,189.308 254.629,190.048 254.597,190.947 L260.407,190.947 M266.263,195.429 C266.634,195.722 267.073,195.869 267.581,195.869 C268.2,195.869 268.799,195.725 269.378,195.439 C270.355,194.964 270.843,194.186 270.843,193.105 L270.843,191.689 C270.628,191.826 270.351,191.939 270.013,192.031 C269.674,192.122 269.342,192.187 269.017,192.226 L267.952,192.363 C267.314,192.447 266.836,192.581 266.517,192.763 C265.976,193.069 265.706,193.557 265.706,194.228 C265.706,194.736 265.892,195.136 266.263,195.429 M269.964,190.673 C270.368,190.621 270.638,190.452 270.775,190.165 C270.853,190.009 270.892,189.785 270.892,189.492 C270.892,188.893 270.679,188.458 270.252,188.188 C269.826,187.918 269.215,187.783 268.421,187.783 C267.503,187.783 266.852,188.03 266.468,188.525 C266.253,188.798 266.113,189.205 266.048,189.745 L264.407,189.745 C264.44,188.456 264.858,187.56 265.662,187.055 C266.466,186.55 267.399,186.298 268.46,186.298 C269.691,186.298 270.69,186.533 271.458,187.001 C272.22,187.47 272.601,188.199 272.601,189.189 L272.601,195.214 C272.601,195.397 272.638,195.543 272.713,195.654 C272.788,195.764 272.946,195.82 273.187,195.82 C273.265,195.82 273.353,195.815 273.45,195.805 C273.548,195.795 273.652,195.781 273.763,195.761 L273.763,197.06 C273.489,197.138 273.281,197.187 273.138,197.206 C272.995,197.226 272.799,197.236 272.552,197.236 C271.946,197.236 271.507,197.021 271.234,196.591 C271.09,196.363 270.989,196.041 270.931,195.624 C270.573,196.093 270.058,196.5 269.388,196.845 C268.717,197.19 267.978,197.363 267.171,197.363 C266.201,197.363 265.408,197.068 264.793,196.479 C264.178,195.89 263.87,195.152 263.87,194.267 C263.87,193.297 264.173,192.545 264.778,192.011 C265.384,191.477 266.178,191.148 267.161,191.025 L269.964,190.673 M282.377,187.109 C283.116,187.682 283.56,188.668 283.71,190.068 L282.001,190.068 C281.897,189.423 281.659,188.888 281.288,188.461 C280.917,188.035 280.321,187.822 279.501,187.822 C278.381,187.822 277.581,188.369 277.099,189.462 C276.786,190.172 276.63,191.048 276.63,192.089 C276.63,193.137 276.851,194.02 277.294,194.736 C277.737,195.452 278.433,195.81 279.384,195.81 C280.113,195.81 280.691,195.587 281.117,195.141 C281.544,194.695 281.838,194.085 282.001,193.31 L283.71,193.31 C283.515,194.697 283.027,195.711 282.245,196.352 C281.464,196.993 280.465,197.314 279.247,197.314 C277.88,197.314 276.79,196.814 275.976,195.815 C275.162,194.815 274.755,193.567 274.755,192.07 C274.755,190.234 275.201,188.805 276.093,187.783 C276.985,186.76 278.121,186.249 279.501,186.249 C280.68,186.249 281.638,186.536 282.377,187.109 M285.468,182.617 L287.226,182.617 L287.226,187.968 C287.642,187.441 288.017,187.07 288.349,186.855 C288.915,186.484 289.622,186.298 290.468,186.298 C291.985,186.298 293.013,186.829 293.554,187.89 C293.847,188.469 293.993,189.273 293.993,190.302 L293.993,197.011 L292.187,197.011 L292.187,190.419 C292.187,189.651 292.089,189.088 291.894,188.73 C291.575,188.157 290.976,187.87 290.097,187.87 C289.368,187.87 288.707,188.121 288.114,188.622 C287.522,189.124 287.226,190.071 287.226,191.464 L287.226,197.011 L285.468,197.011 L285.468,182.617 M302.544,182.665 L308.999,182.665 C310.275,182.665 311.304,183.025 312.085,183.744 C312.866,184.464 313.257,185.475 313.257,186.777 C313.257,187.897 312.909,188.871 312.212,189.702 C311.515,190.532 310.444,190.947 308.999,190.947 L304.487,190.947 L304.487,197.011 L302.544,197.011 L302.544,182.665 M310.122,184.638 C309.693,184.436 309.103,184.335 308.355,184.335 L304.487,184.335 L304.487,189.306 L308.355,189.306 C309.227,189.306 309.935,189.12 310.479,188.749 C311.022,188.378 311.294,187.724 311.294,186.786 C311.294,185.732 310.903,185.016 310.122,184.638 M322,194.555 C322.433,193.673 322.65,192.691 322.65,191.611 C322.65,190.634 322.493,189.84 322.181,189.228 C321.686,188.264 320.833,187.783 319.622,187.783 C318.548,187.783 317.767,188.193 317.278,189.013 C316.79,189.833 316.546,190.823 316.546,191.982 C316.546,193.095 316.79,194.023 317.278,194.765 C317.767,195.507 318.542,195.878 319.603,195.878 C320.768,195.878 321.567,195.437 322,194.555 M323.089,187.597 C324.02,188.495 324.486,189.817 324.486,191.562 C324.486,193.248 324.075,194.641 323.255,195.742 C322.435,196.842 321.162,197.392 319.437,197.392 C317.998,197.392 316.855,196.905 316.009,195.932 C315.163,194.959 314.739,193.652 314.739,192.011 C314.739,190.253 315.185,188.854 316.077,187.812 C316.969,186.77 318.167,186.249 319.671,186.249 C321.019,186.249 322.158,186.699 323.089,187.597 M327.607,193.73 C327.659,194.316 327.805,194.765 328.046,195.078 C328.489,195.644 329.257,195.927 330.351,195.927 C331.002,195.927 331.575,195.786 332.069,195.502 C332.564,195.219 332.812,194.781 332.812,194.189 C332.812,193.74 332.613,193.398 332.216,193.163 C331.962,193.02 331.461,192.854 330.712,192.665 L329.316,192.314 C328.424,192.092 327.766,191.845 327.343,191.572 C326.588,191.096 326.21,190.439 326.21,189.599 C326.21,188.609 326.567,187.809 327.279,187.197 C327.992,186.585 328.951,186.279 330.155,186.279 C331.731,186.279 332.867,186.741 333.564,187.665 C334,188.251 334.211,188.883 334.198,189.56 L332.538,189.56 C332.506,189.163 332.366,188.801 332.118,188.476 C331.715,188.014 331.015,187.783 330.019,187.783 C329.355,187.783 328.852,187.91 328.51,188.163 C328.168,188.417 327.997,188.753 327.997,189.169 C327.997,189.625 328.222,189.99 328.671,190.263 C328.931,190.426 329.316,190.569 329.823,190.693 L330.986,190.976 C332.249,191.282 333.095,191.578 333.525,191.865 C334.208,192.314 334.55,193.02 334.55,193.984 C334.55,194.915 334.197,195.719 333.49,196.396 C332.784,197.073 331.708,197.411 330.263,197.411 C328.707,197.411 327.605,197.058 326.957,196.352 C326.309,195.646 325.963,194.772 325.917,193.73 L327.607,193.73 M336.913,183.632 L338.691,183.632 L338.691,186.552 L340.361,186.552 L340.361,187.988 L338.691,187.988 L338.691,194.814 C338.691,195.178 338.814,195.423 339.062,195.546 C339.198,195.618 339.426,195.654 339.745,195.654 C339.83,195.654 339.921,195.652 340.019,195.649 C340.116,195.646 340.23,195.637 340.361,195.624 L340.361,197.011 C340.159,197.07 339.949,197.112 339.731,197.138 C339.513,197.164 339.277,197.177 339.023,197.177 C338.202,197.177 337.646,196.967 337.353,196.547 C337.06,196.127 336.913,195.582 336.913,194.911 L336.913,187.988 L335.497,187.988 L335.497,186.552 L336.913,186.552 L336.913,183.632 M348.622,186.84 C349.319,187.189 349.849,187.639 350.214,188.193 C350.566,188.72 350.8,189.335 350.917,190.038 C351.021,190.52 351.073,191.288 351.073,192.343 L343.407,192.343 C343.44,193.404 343.691,194.256 344.159,194.897 C344.628,195.538 345.354,195.859 346.337,195.859 C347.255,195.859 347.987,195.556 348.534,194.951 C348.847,194.599 349.068,194.192 349.198,193.73 L350.927,193.73 C350.881,194.114 350.73,194.542 350.473,195.014 C350.216,195.486 349.928,195.872 349.609,196.171 C349.075,196.692 348.414,197.044 347.626,197.226 C347.203,197.33 346.724,197.382 346.191,197.382 C344.888,197.382 343.785,196.909 342.88,195.961 C341.975,195.014 341.523,193.688 341.523,191.982 C341.523,190.302 341.978,188.938 342.89,187.89 C343.801,186.842 344.993,186.318 346.464,186.318 C347.206,186.318 347.926,186.492 348.622,186.84 M349.267,190.947 C349.195,190.185 349.029,189.576 348.769,189.12 C348.287,188.274 347.483,187.851 346.357,187.851 C345.549,187.851 344.872,188.142 344.325,188.725 C343.778,189.308 343.489,190.048 343.456,190.947 L349.267,190.947 M353.267,186.552 L354.937,186.552 L354.937,188.359 C355.073,188.007 355.409,187.579 355.943,187.075 C356.476,186.57 357.092,186.318 357.788,186.318 C357.821,186.318 357.876,186.321 357.954,186.327 C358.032,186.334 358.166,186.347 358.355,186.367 L358.355,188.222 C358.25,188.202 358.154,188.189 358.067,188.183 C357.979,188.176 357.883,188.173 357.778,188.173 C356.893,188.173 356.213,188.458 355.737,189.028 C355.262,189.597 355.025,190.253 355.025,190.995 L355.025,197.011 L353.267,197.011 L353.267,186.552 M365.421,186.601 L367.208,186.601 L367.208,197.011 L365.421,197.011 L365.421,186.601 M365.421,182.665 L367.208,182.665 L367.208,184.658 L365.421,184.658 L365.421,182.665 M371.685,194.716 C372.16,195.471 372.922,195.849 373.97,195.849 C374.784,195.849 375.453,195.499 375.977,194.799 C376.501,194.099 376.763,193.095 376.763,191.786 C376.763,190.465 376.493,189.487 375.952,188.852 C375.412,188.217 374.745,187.9 373.95,187.9 C373.065,187.9 372.347,188.238 371.797,188.915 C371.247,189.592 370.972,190.589 370.972,191.904 C370.972,193.023 371.209,193.961 371.685,194.716 M375.63,186.874 C375.943,187.07 376.297,187.411 376.694,187.9 L376.694,182.617 L378.384,182.617 L378.384,197.011 L376.802,197.011 L376.802,195.556 C376.392,196.201 375.907,196.666 375.347,196.953 C374.787,197.239 374.146,197.382 373.423,197.382 C372.258,197.382 371.249,196.892 370.396,195.912 C369.543,194.933 369.116,193.629 369.116,192.001 C369.116,190.478 369.505,189.158 370.283,188.041 C371.061,186.925 372.173,186.367 373.618,186.367 C374.419,186.367 375.09,186.536 375.63,186.874 M381.896,186.689 L383.937,186.689 L383.937,188.818 L381.896,188.818 L381.896,186.689 M381.896,194.882 L383.937,194.882 L383.937,197.011 L381.896,197.011 L381.896,194.882 M237.351,235.351 C238.008,235.351 238.549,235.283 238.972,235.146 C239.727,234.892 240.346,234.404 240.827,233.681 C241.211,233.102 241.488,232.359 241.657,231.454 C241.755,230.914 241.804,230.413 241.804,229.951 C241.804,228.173 241.451,226.793 240.744,225.81 C240.038,224.827 238.9,224.335 237.331,224.335 L233.884,224.335 L233.884,235.351 L237.351,235.351 M231.931,222.665 L237.741,222.665 C239.714,222.665 241.244,223.365 242.331,224.765 C243.301,226.028 243.786,227.646 243.786,229.619 C243.786,231.142 243.5,232.519 242.927,233.749 C241.918,235.924 240.183,237.011 237.722,237.011 L231.931,237.011 L231.931,222.665 M246.466,222.665 L256.925,222.665 L256.925,224.423 L248.361,224.423 L248.361,228.779 L256.28,228.779 L256.28,230.439 L248.361,230.439 L248.361,235.302 L257.071,235.302 L257.071,237.011 L246.466,237.011 L246.466,222.665 M259.609,222.665 L261.552,222.665 L261.552,235.302 L268.818,235.302 L268.818,237.011 L259.609,237.011 L259.609,222.665 M270.903,222.665 L281.362,222.665 L281.362,224.423 L272.798,224.423 L272.798,228.779 L280.718,228.779 L280.718,230.439 L272.798,230.439 L272.798,235.302 L281.509,235.302 L281.509,237.011 L270.903,237.011 L270.903,222.665 M294.486,222.665 L294.486,224.374 L289.652,224.374 L289.652,237.011 L287.679,237.011 L287.679,224.374 L282.845,224.374 L282.845,222.665 L294.486,222.665 M296.435,222.665 L306.894,222.665 L306.894,224.423 L298.329,224.423 L298.329,228.779 L306.249,228.779 L306.249,230.439 L298.329,230.439 L298.329,235.302 L307.04,235.302 L307.04,237.011 L296.435,237.011 L296.435,222.665 M315.31,222.665 L321.765,222.665 C323.041,222.665 324.069,223.025 324.851,223.745 C325.632,224.464 326.023,225.475 326.023,226.777 C326.023,227.897 325.674,228.871 324.978,229.702 C324.281,230.532 323.21,230.947 321.765,230.947 L317.253,230.947 L317.253,237.011 L315.31,237.011 L315.31,222.665 M322.888,224.638 C322.458,224.436 321.869,224.335 321.12,224.335 L317.253,224.335 L317.253,229.306 L321.12,229.306 C321.993,229.306 322.701,229.12 323.244,228.749 C323.788,228.378 324.06,227.724 324.06,226.786 C324.06,225.732 323.669,225.016 322.888,224.638 M334.766,234.555 C335.199,233.673 335.415,232.691 335.415,231.611 C335.415,230.634 335.259,229.84 334.946,229.228 C334.452,228.264 333.599,227.783 332.388,227.783 C331.314,227.783 330.532,228.193 330.044,229.013 C329.556,229.833 329.312,230.823 329.312,231.982 C329.312,233.095 329.556,234.023 330.044,234.765 C330.532,235.507 331.307,235.878 332.368,235.878 C333.534,235.878 334.333,235.437 334.766,234.555 M335.855,227.597 C336.786,228.495 337.251,229.817 337.251,231.562 C337.251,233.248 336.841,234.641 336.021,235.742 C335.2,236.842 333.928,237.392 332.202,237.392 C330.763,237.392 329.621,236.905 328.775,235.932 C327.928,234.959 327.505,233.652 327.505,232.011 C327.505,230.253 327.951,228.854 328.843,227.812 C329.735,226.77 330.933,226.249 332.437,226.249 C333.784,226.249 334.924,226.699 335.855,227.597 M340.372,233.73 C340.424,234.316 340.571,234.765 340.812,235.078 C341.254,235.644 342.023,235.927 343.116,235.927 C343.767,235.927 344.34,235.786 344.835,235.502 C345.33,235.219 345.577,234.781 345.577,234.189 C345.577,233.74 345.379,233.398 344.982,233.163 C344.728,233.02 344.226,232.854 343.478,232.665 L342.081,232.314 C341.189,232.092 340.532,231.845 340.109,231.572 C339.353,231.096 338.976,230.439 338.976,229.599 C338.976,228.609 339.332,227.809 340.045,227.197 C340.758,226.585 341.717,226.279 342.921,226.279 C344.497,226.279 345.633,226.741 346.329,227.665 C346.765,228.251 346.977,228.883 346.964,229.56 L345.304,229.56 C345.271,229.163 345.131,228.801 344.884,228.476 C344.48,228.014 343.78,227.783 342.784,227.783 C342.12,227.783 341.617,227.91 341.276,228.163 C340.934,228.417 340.763,228.753 340.763,229.169 C340.763,229.625 340.987,229.99 341.437,230.263 C341.697,230.426 342.081,230.569 342.589,230.693 L343.751,230.976 C345.014,231.282 345.861,231.578 346.29,231.865 C346.974,232.314 347.316,233.02 347.316,233.984 C347.316,234.915 346.962,235.719 346.256,236.396 C345.55,237.073 344.474,237.411 343.028,237.411 C341.472,237.411 340.371,237.058 339.723,236.352 C339.075,235.646 338.728,234.772 338.683,233.73 L340.372,233.73 M349.679,223.632 L351.456,223.632 L351.456,226.552 L353.126,226.552 L353.126,227.988 L351.456,227.988 L351.456,234.814 C351.456,235.178 351.58,235.423 351.827,235.546 C351.964,235.618 352.192,235.654 352.511,235.654 C352.596,235.654 352.687,235.652 352.784,235.649 C352.882,235.646 352.996,235.637 353.126,235.624 L353.126,237.011 C352.924,237.07 352.714,237.112 352.496,237.138 C352.278,237.164 352.042,237.177 351.788,237.177 C350.968,237.177 350.411,236.967 350.118,236.547 C349.825,236.127 349.679,235.582 349.679,234.911 L349.679,227.988 L348.263,227.988 L348.263,226.552 L349.679,226.552 L349.679,223.632 M361.388,226.84 C362.084,227.189 362.615,227.639 362.98,228.193 C363.331,228.72 363.566,229.335 363.683,230.038 C363.787,230.52 363.839,231.288 363.839,232.343 L356.173,232.343 C356.206,233.404 356.456,234.256 356.925,234.897 C357.394,235.538 358.12,235.859 359.103,235.859 C360.021,235.859 360.753,235.556 361.3,234.951 C361.612,234.599 361.834,234.192 361.964,233.73 L363.693,233.73 C363.647,234.114 363.496,234.542 363.238,235.014 C362.981,235.486 362.693,235.872 362.374,236.171 C361.84,236.692 361.18,237.044 360.392,237.226 C359.969,237.33 359.49,237.382 358.956,237.382 C357.654,237.382 356.551,236.909 355.646,235.961 C354.741,235.014 354.288,233.688 354.288,231.982 C354.288,230.302 354.744,228.938 355.655,227.89 C356.567,226.842 357.758,226.318 359.23,226.318 C359.972,226.318 360.691,226.492 361.388,226.84 M362.032,230.947 C361.961,230.185 361.795,229.576 361.534,229.12 C361.053,228.274 360.249,227.851 359.122,227.851 C358.315,227.851 357.638,228.142 357.091,228.725 C356.544,229.308 356.254,230.048 356.222,230.947 L362.032,230.947 M366.032,226.552 L367.702,226.552 L367.702,228.359 C367.839,228.007 368.174,227.579 368.708,227.075 C369.242,226.57 369.857,226.318 370.554,226.318 C370.586,226.318 370.642,226.321 370.72,226.328 C370.798,226.334 370.931,226.347 371.12,226.367 L371.12,228.222 C371.016,228.203 370.92,228.189 370.832,228.183 C370.744,228.176 370.648,228.173 370.544,228.173 C369.659,228.173 368.978,228.458 368.503,229.028 C368.028,229.597 367.79,230.253 367.79,230.995 L367.79,237.011 L366.032,237.011 L366.032,226.552 Z" style="stroke:#303030;stroke-opacity:1;stroke-width:1;stroke-linejoin:miter;stroke-miterlimit:2;stroke-linecap:round;fill-rule:nonzero;fill:#000000;fill-opacity:1;"/>
        </g>
        <g id="Shape11">
            <desc shapeID="11" type="0" basicInfo-basicType="2" basicInfo-roundedRectRadius="12" basicInfo-polygonSides="6" basicInfo-starPoints="5" bounding="rect(-81,-26.5,162,53)" text="" font-familyName="Helvetica" font-pixelSize="20" font-bold="0" font-underline="0" font-alignment="1" strokeStyle="0" markerStart="0" markerEnd="0" shadowEnabled="0" shadowOffsetX="0" shadowOffsetY="2" shadowBlur="4" shadowOpacity="160" blurEnabled="0" blurRadius="4" transform="matrix(0.749004,0,0,1,498,56.5)" pers-center="0,0" pers-size="0,0" pers-start="0,0" pers-end="0,0" locked="0" mesh="" flag=""/>
            <path id="shapePath11" d="M437.331,42 C437.331,35.3726 441.355,30 446.319,30 L549.681,30 C554.645,30 558.669,35.3726 558.669,42 L558.669,71 C558.669,77.627 554.645,83 549.681,83 L446.319,83 C441.355,83 437.331,77.627 437.331,71 L437.331,42 Z" style="stroke:#323232;stroke-opacity:1;stroke-width:1;stroke-linejoin:miter;stroke-miterlimit:2;stroke-linecap:round;fill-rule:evenodd;fill:#bebebe;fill-opacity:0.784314;"/>
        </g>
        <g id="Shape12">
            <desc shapeID="12" type="2" basicInfo-basicType="0" basicInfo-roundedRectRadius="12" basicInfo-polygonSides="6" basicInfo-starPoints="5" bounding="rect(-51.3068,-17,102.614,34)" text="GET Thumbnails" font-familyName="Helvetica" font-pixelSize="20" font-bold="0" font-underline="0" font-alignment="1" strokeStyle="0" markerStart="0" markerEnd="0" shadowEnabled="0" shadowOffsetX="0" shadowOffsetY="2" shadowBlur="4" shadowOpacity="160" blurEnabled="0" blurRadius="4" transform="matrix(1,0,0,1,498.375,57)" pers-center="0,0" pers-size="0,0" pers-start="0,0" pers-end="0,0" locked="0" mesh="" flag=""/>
            <path id="shapePath12" d="M489.236,38.4707 C490.662,39.2194 491.534,40.5312 491.853,42.4062 L489.929,42.4062 C489.695,41.3581 489.21,40.5947 488.474,40.1162 C487.738,39.6377 486.811,39.3984 485.691,39.3984 C484.363,39.3984 483.245,39.8965 482.336,40.8926 C481.428,41.8887 480.974,43.373 480.974,45.3457 C480.974,47.0514 481.349,48.4398 482.097,49.5107 C482.846,50.5817 484.067,51.1172 485.759,51.1172 C487.055,51.1172 488.128,50.7412 488.977,49.9892 C489.827,49.2373 490.261,48.0215 490.281,46.3418 L485.789,46.3418 L485.789,44.7304 L492.087,44.7304 L492.087,52.4062 L490.837,52.4062 L490.369,50.5605 C489.711,51.2832 489.128,51.7845 488.621,52.0644 C487.768,52.5462 486.684,52.7871 485.369,52.7871 C483.669,52.7871 482.208,52.237 480.984,51.1367 C479.649,49.7565 478.982,47.862 478.982,45.4531 C478.982,43.0508 479.633,41.14 480.935,39.7207 C482.172,38.3665 483.774,37.6894 485.74,37.6894 C487.087,37.6894 488.253,37.9498 489.236,38.4707 M495.271,38.0605 L505.73,38.0605 L505.73,39.8183 L497.166,39.8183 L497.166,44.1738 L505.086,44.1738 L505.086,45.834 L497.166,45.834 L497.166,50.6973 L505.877,50.6973 L505.877,52.4062 L495.271,52.4062 L495.271,38.0605 M518.853,38.0605 L518.853,39.7695 L514.019,39.7695 L514.019,52.4062 L512.046,52.4062 L512.046,39.7695 L507.212,39.7695 L507.212,38.0605 L518.853,38.0605 M458.697,58.0605 L458.697,59.7695 L453.863,59.7695 L453.863,72.4062 L451.89,72.4062 L451.89,59.7695 L447.056,59.7695 L447.056,58.0605 L458.697,58.0605 M460.226,58.0117 L461.984,58.0117 L461.984,63.3633 C462.401,62.8359 462.775,62.4648 463.107,62.25 C463.673,61.8789 464.38,61.6933 465.226,61.6933 C466.743,61.6933 467.772,62.2239 468.312,63.2851 C468.605,63.8646 468.752,64.6686 468.752,65.6973 L468.752,72.4062 L466.945,72.4062 L466.945,65.8144 C466.945,65.0462 466.847,64.4831 466.652,64.125 C466.333,63.5521 465.734,63.2656 464.855,63.2656 C464.126,63.2656 463.465,63.5163 462.873,64.0176 C462.28,64.5189 461.984,65.4661 461.984,66.8594 L461.984,72.4062 L460.226,72.4062 L460.226,58.0117 M473.093,61.9473 L473.093,68.8906 C473.093,69.4245 473.178,69.8607 473.347,70.1992 C473.66,70.8242 474.242,71.1367 475.095,71.1367 C476.319,71.1367 477.153,70.5898 477.595,69.4961 C477.836,68.9101 477.957,68.1061 477.957,67.084 L477.957,61.9473 L479.714,61.9473 L479.714,72.4062 L478.054,72.4062 L478.074,70.8633 C477.846,71.2604 477.563,71.5957 477.224,71.8691 C476.554,72.416 475.74,72.6894 474.783,72.6894 C473.292,72.6894 472.276,72.1914 471.736,71.1953 C471.443,70.6614 471.296,69.9486 471.296,69.0566 L471.296,61.9473 L473.093,61.9473 M482.445,61.9473 L484.183,61.9473 L484.183,63.4316 C484.6,62.9173 484.977,62.543 485.316,62.3086 C485.895,61.9114 486.553,61.7129 487.289,61.7129 C488.122,61.7129 488.793,61.918 489.3,62.3281 C489.587,62.5625 489.847,62.9075 490.082,63.3633 C490.472,62.8034 490.931,62.3883 491.459,62.1181 C491.986,61.848 492.578,61.7129 493.236,61.7129 C494.642,61.7129 495.599,62.2207 496.107,63.2363 C496.38,63.7832 496.517,64.5189 496.517,65.4433 L496.517,72.4062 L494.691,72.4062 L494.691,65.1406 C494.691,64.444 494.517,63.9655 494.169,63.7051 C493.82,63.4446 493.395,63.3144 492.894,63.3144 C492.204,63.3144 491.61,63.5456 491.112,64.0078 C490.614,64.47 490.365,65.2415 490.365,66.3223 L490.365,72.4062 L488.578,72.4062 L488.578,65.5801 C488.578,64.8704 488.493,64.3529 488.324,64.0273 C488.057,63.539 487.559,63.2949 486.83,63.2949 C486.166,63.2949 485.562,63.5521 485.018,64.0664 C484.475,64.5807 484.203,65.5117 484.203,66.8594 L484.203,72.4062 L482.445,72.4062 L482.445,61.9473 M498.964,58.0117 L500.673,58.0117 L500.673,63.2168 C501.058,62.7155 501.517,62.333 502.05,62.0693 C502.584,61.8056 503.164,61.6738 503.789,61.6738 C505.091,61.6738 506.147,62.1214 506.958,63.0166 C507.768,63.9118 508.173,65.2318 508.173,66.9765 C508.173,68.6302 507.773,70.0039 506.972,71.0976 C506.171,72.1914 505.061,72.7383 503.642,72.7383 C502.848,72.7383 502.177,72.5462 501.63,72.1621 C501.305,71.9342 500.957,71.5696 500.586,71.0683 L500.586,72.4062 L498.964,72.4062 L498.964,58.0117 M505.669,70.0527 C506.141,69.2975 506.377,68.3014 506.377,67.0644 C506.377,65.9642 506.141,65.0527 505.669,64.3301 C505.197,63.6074 504.502,63.2461 503.584,63.2461 C502.783,63.2461 502.081,63.5423 501.479,64.1348 C500.877,64.7272 500.576,65.7038 500.576,67.0644 C500.576,68.0475 500.699,68.845 500.947,69.457 C501.409,70.6094 502.272,71.1855 503.535,71.1855 C504.485,71.1855 505.197,70.8079 505.669,70.0527 M510.211,61.9473 L511.88,61.9473 L511.88,63.4316 C512.375,62.8196 512.899,62.3802 513.453,62.1133 C514.006,61.8463 514.621,61.7129 515.298,61.7129 C516.783,61.7129 517.785,62.2305 518.306,63.2656 C518.593,63.832 518.736,64.6426 518.736,65.6973 L518.736,72.4062 L516.949,72.4062 L516.949,65.8144 C516.949,65.1764 516.854,64.6621 516.666,64.2715 C516.353,63.6204 515.787,63.2949 514.966,63.2949 C514.55,63.2949 514.208,63.3372 513.941,63.4219 C513.459,63.5651 513.036,63.8515 512.671,64.2812 C512.378,64.6263 512.188,64.9827 512.1,65.3506 C512.012,65.7184 511.968,66.2441 511.968,66.9277 L511.968,72.4062 L510.211,72.4062 L510.211,61.9473 M523.224,70.8242 C523.595,71.1172 524.035,71.2637 524.543,71.2637 C525.161,71.2637 525.76,71.1204 526.339,70.834 C527.316,70.3587 527.804,69.5807 527.804,68.5 L527.804,67.084 C527.589,67.2207 527.313,67.3346 526.974,67.4258 C526.636,67.5169 526.304,67.582 525.978,67.6211 L524.914,67.7578 C524.276,67.8424 523.797,67.9759 523.478,68.1582 C522.938,68.4642 522.668,68.9525 522.668,69.623 C522.668,70.1308 522.853,70.5312 523.224,70.8242 M526.925,66.0683 C527.329,66.0163 527.599,65.847 527.736,65.5605 C527.814,65.4043 527.853,65.1797 527.853,64.8867 C527.853,64.2877 527.64,63.8532 527.213,63.583 C526.787,63.3128 526.177,63.1777 525.382,63.1777 C524.464,63.1777 523.813,63.4251 523.429,63.9199 C523.214,64.1933 523.074,64.6002 523.009,65.1406 L521.369,65.1406 C521.401,63.8515 521.82,62.9547 522.624,62.4502 C523.428,61.9456 524.36,61.6933 525.421,61.6933 C526.652,61.6933 527.651,61.9277 528.419,62.3965 C529.181,62.8652 529.562,63.5944 529.562,64.584 L529.562,70.6094 C529.562,70.7916 529.599,70.9381 529.674,71.0488 C529.749,71.1595 529.907,71.2148 530.148,71.2148 C530.226,71.2148 530.314,71.2099 530.412,71.2002 C530.509,71.1904 530.614,71.1758 530.724,71.1562 L530.724,72.4551 C530.451,72.5332 530.242,72.582 530.099,72.6015 C529.956,72.6211 529.761,72.6308 529.513,72.6308 C528.908,72.6308 528.468,72.416 528.195,71.9863 C528.052,71.7584 527.951,71.4362 527.892,71.0195 C527.534,71.4883 527.02,71.8952 526.349,72.2402 C525.679,72.5853 524.94,72.7578 524.132,72.7578 C523.162,72.7578 522.37,72.4632 521.754,71.874 C521.139,71.2848 520.832,70.5475 520.832,69.6621 C520.832,68.692 521.134,67.9401 521.74,67.4062 C522.345,66.8724 523.14,66.5436 524.123,66.4199 L526.925,66.0683 M532.429,61.9961 L534.216,61.9961 L534.216,72.4062 L532.429,72.4062 L532.429,61.9961 M532.429,58.0605 L534.216,58.0605 L534.216,60.0527 L532.429,60.0527 L532.429,58.0605 M536.916,58.0605 L538.673,58.0605 L538.673,72.4062 L536.916,72.4062 L536.916,58.0605 M542.349,69.125 C542.401,69.7109 542.548,70.1601 542.789,70.4726 C543.231,71.039 544,71.3223 545.093,71.3223 C545.744,71.3223 546.317,71.1806 546.812,70.8974 C547.307,70.6142 547.554,70.1764 547.554,69.584 C547.554,69.1348 547.356,68.793 546.959,68.5586 C546.705,68.4154 546.203,68.2493 545.455,68.0605 L544.058,67.709 C543.166,67.4876 542.509,67.2402 542.086,66.9668 C541.33,66.4915 540.953,65.834 540.953,64.9941 C540.953,64.0045 541.309,63.2038 542.022,62.5918 C542.735,61.9798 543.694,61.6738 544.898,61.6738 C546.474,61.6738 547.61,62.1361 548.306,63.0605 C548.742,63.6465 548.954,64.278 548.941,64.9551 L547.281,64.9551 C547.248,64.5579 547.108,64.1966 546.861,63.8711 C546.457,63.4088 545.757,63.1777 544.761,63.1777 C544.097,63.1777 543.594,63.3047 543.253,63.5586 C542.911,63.8125 542.74,64.1478 542.74,64.5644 C542.74,65.0202 542.964,65.3848 543.414,65.6582 C543.674,65.8209 544.058,65.9642 544.566,66.0879 L545.728,66.3711 C546.991,66.6771 547.837,66.9733 548.267,67.2598 C548.951,67.709 549.293,68.4154 549.293,69.3789 C549.293,70.3099 548.939,71.1139 548.233,71.791 C547.527,72.4681 546.451,72.8066 545.005,72.8066 C543.449,72.8066 542.348,72.4534 541.7,71.7471 C541.052,71.0407 540.705,70.1666 540.66,69.125 L542.349,69.125 Z" style="stroke:none;fill-rule:nonzero;fill:#000000;fill-opacity:1;"/>
        </g>
        <g id="Shape13">
            <desc shapeID="13" type="0" basicInfo-basicType="1" basicInfo-roundedRectRadius="12" basicInfo-polygonSides="6" basicInfo-starPoints="5" bounding="rect(-6,-21,12,42)" text="" font-familyName="Helvetica" font-pixelSize="20" font-bold="0" font-underline="0" font-alignment="1" strokeStyle="0" markerStart="0" markerEnd="0" shadowEnabled="0" shadowOffsetX="0" shadowOffsetY="2" shadowBlur="4" shadowOpacity="160" blurEnabled="0" blurRadius="4" transform="matrix(0.749004,0,0,1,499.086,113)" pers-center="0,0" pers-size="0,0" pers-start="0,0" pers-end="0,0" groupID="3" locked="0" mesh="" flag=""/>
            <path id="shapePath13" d="M494.592,92 L503.58,92 L503.58,134 L494.592,134 L494.592,92 Z" style="stroke:none;fill-rule:evenodd;fill:#000000;fill-opacity:1;"/>
        </g>
        <g id="Shape14">
            <desc shapeID="14" type="0" basicInfo-basicType="0" basicInfo-roundedRectRadius="12" basicInfo-polygonSides="6" basicInfo-starPoints="5" bounding="rect(-15.5883,-13.1251,31.1767,26.2502)" text="" font-familyName="Helvetica" font-pixelSize="20" font-bold="0" font-underline="0" font-alignment="1" strokeStyle="0" markerStart="0" markerEnd="0" shadowEnabled="0" shadowOffsetX="0" shadowOffsetY="2" shadowBlur="4" shadowOpacity="160" blurEnabled="0" blurRadius="4" transform="matrix(-0.74894,-0.0131226,0.00982888,-0.999914,498.337,147.125)" pers-center="0,0" pers-size="0,0" pers-start="0,0" pers-end="0,0" groupID="3" locked="0" mesh="" flag=""/>
            <path id="shapePath14" d="M498.208,160.249 L492.499,147.023 L486.791,133.797 L498.466,134.001 L510.141,134.206 L504.174,147.227 L498.208,160.249 Z" style="stroke:none;fill-rule:evenodd;fill:#000000;fill-opacity:1;"/>
        </g>
        <g id="Shape15">
            <desc shapeID="15" type="0" basicInfo-basicType="2" basicInfo-roundedRectRadius="12" basicInfo-polygonSides="6" basicInfo-starPoints="5" bounding="rect(-302,-55.5,604,111)" text="" font-familyName="Helvetica" font-pixelSize="20" font-bold="0" font-underline="0" font-alignment="1" strokeStyle="0" markerStart="0" markerEnd="0" shadowEnabled="0" shadowOffsetX="0" shadowOffsetY="2" shadowBlur="4" shadowOpacity="160" blurEnabled="0" blurRadius="4" transform="matrix(0.311258,0,0,0.702703,499.086,211)" pers-center="0,0" pers-size="0,0" pers-start="0,0" pers-end="0,0" locked="0" mesh="" flag=""/>
            <path id="shapePath15" d="M405.086,180.432 C405.086,175.775 406.759,172 408.821,172 L589.351,172 C591.414,172 593.086,175.775 593.086,180.432 L593.086,241.568 C593.086,246.225 591.414,250 589.351,250 L408.821,250 C406.759,250 405.086,246.225 405.086,241.568 L405.086,180.432 Z" style="stroke:#303030;stroke-opacity:1;stroke-width:1;stroke-linejoin:miter;stroke-miterlimit:2;stroke-linecap:round;fill-rule:evenodd;fill:#c4c4c4;fill-opacity:1;"/>
        </g>
        <g id="Shape16">
            <desc shapeID="16" type="2" basicInfo-basicType="0" basicInfo-roundedRectRadius="12" basicInfo-polygonSides="6" basicInfo-starPoints="5" bounding="rect(-88.757,-39.1919,177.514,78.3838)" text="For each Thumbnail id:&#10;DELETE Thumbnail" font-familyName="Helvetica" font-pixelSize="20" font-bold="0" font-underline="0" font-alignment="1" strokeStyle="0" markerStart="0" markerEnd="0" shadowEnabled="0" shadowOffsetX="0" shadowOffsetY="2" shadowBlur="4" shadowOpacity="160" blurEnabled="0" blurRadius="4" transform="matrix(1,0,0,1,499.835,211.808)" pers-center="0,0" pers-size="0,0" pers-start="0,0" pers-end="0,0" locked="0" mesh="" flag=""/>
            <path id="shapePath16" d="M412.888,182.665 L422.839,182.665 L422.839,184.423 L414.831,184.423 L414.831,188.779 L421.872,188.779 L421.872,190.488 L414.831,190.488 L414.831,197.011 L412.888,197.011 L412.888,182.665 M431.219,194.555 C431.652,193.673 431.868,192.691 431.868,191.611 C431.868,190.634 431.712,189.84 431.4,189.228 C430.905,188.264 430.052,187.783 428.841,187.783 C427.767,187.783 426.986,188.193 426.497,189.013 C426.009,189.833 425.765,190.823 425.765,191.982 C425.765,193.095 426.009,194.023 426.497,194.765 C426.986,195.507 427.76,195.878 428.821,195.878 C429.987,195.878 430.786,195.437 431.219,194.555 M432.308,187.597 C433.239,188.495 433.704,189.817 433.704,191.562 C433.704,193.248 433.294,194.641 432.474,195.742 C431.654,196.842 430.381,197.392 428.655,197.392 C427.217,197.392 426.074,196.905 425.228,195.932 C424.381,194.959 423.958,193.652 423.958,192.011 C423.958,190.253 424.404,188.854 425.296,187.812 C426.188,186.77 427.386,186.249 428.89,186.249 C430.237,186.249 431.377,186.699 432.308,187.597 M435.829,186.552 L437.499,186.552 L437.499,188.359 C437.636,188.007 437.971,187.579 438.505,187.075 C439.039,186.57 439.654,186.318 440.351,186.318 C440.383,186.318 440.439,186.321 440.517,186.327 C440.595,186.334 440.728,186.347 440.917,186.367 L440.917,188.222 C440.813,188.202 440.717,188.189 440.629,188.183 C440.541,188.176 440.445,188.173 440.341,188.173 C439.456,188.173 438.775,188.458 438.3,189.028 C437.825,189.597 437.587,190.253 437.587,190.995 L437.587,197.011 L435.829,197.011 L435.829,186.552 M454.497,186.84 C455.194,187.189 455.724,187.639 456.089,188.193 C456.441,188.72 456.675,189.335 456.792,190.038 C456.896,190.52 456.948,191.288 456.948,192.343 L449.282,192.343 C449.315,193.404 449.566,194.256 450.034,194.897 C450.503,195.538 451.229,195.859 452.212,195.859 C453.13,195.859 453.862,195.556 454.409,194.951 C454.722,194.599 454.943,194.192 455.073,193.73 L456.802,193.73 C456.756,194.114 456.605,194.542 456.348,195.014 C456.091,195.486 455.803,195.872 455.484,196.171 C454.95,196.692 454.289,197.044 453.501,197.226 C453.078,197.33 452.599,197.382 452.066,197.382 C450.764,197.382 449.66,196.909 448.755,195.961 C447.85,195.014 447.398,193.688 447.398,191.982 C447.398,190.302 447.853,188.938 448.765,187.89 C449.676,186.842 450.868,186.318 452.339,186.318 C453.081,186.318 453.801,186.492 454.497,186.84 M455.142,190.947 C455.07,190.185 454.904,189.576 454.644,189.12 C454.162,188.274 453.358,187.851 452.232,187.851 C451.424,187.851 450.747,188.142 450.2,188.725 C449.654,189.308 449.364,190.048 449.331,190.947 L455.142,190.947 M460.997,195.429 C461.368,195.722 461.808,195.869 462.316,195.869 C462.934,195.869 463.533,195.725 464.112,195.439 C465.089,194.964 465.577,194.186 465.577,193.105 L465.577,191.689 C465.362,191.826 465.086,191.939 464.747,192.031 C464.409,192.122 464.077,192.187 463.751,192.226 L462.687,192.363 C462.049,192.447 461.57,192.581 461.251,192.763 C460.711,193.069 460.441,193.557 460.441,194.228 C460.441,194.736 460.626,195.136 460.997,195.429 M464.698,190.673 C465.102,190.621 465.372,190.452 465.509,190.165 C465.587,190.009 465.626,189.785 465.626,189.492 C465.626,188.893 465.413,188.458 464.987,188.188 C464.56,187.918 463.95,187.783 463.155,187.783 C462.237,187.783 461.586,188.03 461.202,188.525 C460.987,188.798 460.848,189.205 460.782,189.745 L459.142,189.745 C459.174,188.456 459.593,187.56 460.397,187.055 C461.201,186.55 462.133,186.298 463.195,186.298 C464.425,186.298 465.424,186.533 466.193,187.001 C466.954,187.47 467.335,188.199 467.335,189.189 L467.335,195.214 C467.335,195.397 467.373,195.543 467.447,195.654 C467.522,195.764 467.68,195.82 467.921,195.82 C467.999,195.82 468.087,195.815 468.185,195.805 C468.282,195.795 468.387,195.781 468.497,195.761 L468.497,197.06 C468.224,197.138 468.015,197.187 467.872,197.206 C467.729,197.226 467.534,197.236 467.286,197.236 C466.681,197.236 466.241,197.021 465.968,196.591 C465.825,196.363 465.724,196.041 465.665,195.624 C465.307,196.093 464.793,196.5 464.122,196.845 C463.452,197.19 462.713,197.363 461.905,197.363 C460.935,197.363 460.143,197.068 459.528,196.479 C458.912,195.89 458.605,195.152 458.605,194.267 C458.605,193.297 458.907,192.545 459.513,192.011 C460.118,191.477 460.913,191.148 461.896,191.025 L464.698,190.673 M477.112,187.109 C477.85,187.682 478.295,188.668 478.445,190.068 L476.736,190.068 C476.631,189.423 476.394,188.888 476.023,188.461 C475.652,188.035 475.056,187.822 474.236,187.822 C473.116,187.822 472.315,188.369 471.833,189.462 C471.521,190.172 471.364,191.048 471.364,192.089 C471.364,193.137 471.586,194.02 472.029,194.736 C472.471,195.452 473.168,195.81 474.118,195.81 C474.848,195.81 475.425,195.587 475.852,195.141 C476.278,194.695 476.573,194.085 476.736,193.31 L478.445,193.31 C478.249,194.697 477.761,195.711 476.98,196.352 C476.198,196.993 475.199,197.314 473.982,197.314 C472.614,197.314 471.524,196.814 470.71,195.815 C469.896,194.815 469.489,193.567 469.489,192.07 C469.489,190.234 469.935,188.805 470.827,187.783 C471.719,186.76 472.855,186.249 474.236,186.249 C475.414,186.249 476.373,186.536 477.112,187.109 M480.202,182.617 L481.96,182.617 L481.96,187.968 C482.377,187.441 482.751,187.07 483.083,186.855 C483.65,186.484 484.356,186.298 485.202,186.298 C486.719,186.298 487.748,186.829 488.288,187.89 C488.581,188.469 488.728,189.273 488.728,190.302 L488.728,197.011 L486.921,197.011 L486.921,190.419 C486.921,189.651 486.823,189.088 486.628,188.73 C486.309,188.157 485.71,187.87 484.831,187.87 C484.102,187.87 483.441,188.121 482.849,188.622 C482.256,189.124 481.96,190.071 481.96,191.464 L481.96,197.011 L480.202,197.011 L480.202,182.617 M507.189,182.665 L507.189,184.374 L502.355,184.374 L502.355,197.011 L500.382,197.011 L500.382,184.374 L495.548,184.374 L495.548,182.665 L507.189,182.665 M508.718,182.617 L510.476,182.617 L510.476,187.968 C510.892,187.441 511.267,187.07 511.599,186.855 C512.165,186.484 512.872,186.298 513.718,186.298 C515.235,186.298 516.264,186.829 516.804,187.89 C517.097,188.469 517.243,189.273 517.243,190.302 L517.243,197.011 L515.437,197.011 L515.437,190.419 C515.437,189.651 515.339,189.088 515.144,188.73 C514.825,188.157 514.226,187.87 513.347,187.87 C512.618,187.87 511.957,188.121 511.364,188.622 C510.772,189.124 510.476,190.071 510.476,191.464 L510.476,197.011 L508.718,197.011 L508.718,182.617 M521.585,186.552 L521.585,193.495 C521.585,194.029 521.67,194.466 521.839,194.804 C522.152,195.429 522.734,195.742 523.587,195.742 C524.811,195.742 525.644,195.195 526.087,194.101 C526.328,193.515 526.448,192.711 526.448,191.689 L526.448,186.552 L528.206,186.552 L528.206,197.011 L526.546,197.011 L526.566,195.468 C526.338,195.865 526.055,196.201 525.716,196.474 C525.045,197.021 524.232,197.294 523.275,197.294 C521.784,197.294 520.768,196.796 520.228,195.8 C519.935,195.266 519.788,194.553 519.788,193.661 L519.788,186.552 L521.585,186.552 M530.937,186.552 L532.675,186.552 L532.675,188.036 C533.092,187.522 533.469,187.148 533.808,186.913 C534.387,186.516 535.045,186.318 535.78,186.318 C536.614,186.318 537.284,186.523 537.792,186.933 C538.079,187.167 538.339,187.512 538.573,187.968 C538.964,187.408 539.423,186.993 539.95,186.723 C540.478,186.453 541.07,186.318 541.728,186.318 C543.134,186.318 544.091,186.826 544.599,187.841 C544.872,188.388 545.009,189.124 545.009,190.048 L545.009,197.011 L543.183,197.011 L543.183,189.745 C543.183,189.049 543.009,188.57 542.66,188.31 C542.312,188.049 541.887,187.919 541.386,187.919 C540.696,187.919 540.102,188.15 539.604,188.613 C539.106,189.075 538.857,189.846 538.857,190.927 L538.857,197.011 L537.07,197.011 L537.07,190.185 C537.07,189.475 536.985,188.958 536.816,188.632 C536.549,188.144 536.051,187.9 535.321,187.9 C534.657,187.9 534.054,188.157 533.51,188.671 C532.966,189.186 532.695,190.117 532.695,191.464 L532.695,197.011 L530.937,197.011 L530.937,186.552 M547.456,182.617 L549.165,182.617 L549.165,187.822 C549.549,187.32 550.008,186.938 550.542,186.674 C551.076,186.411 551.655,186.279 552.28,186.279 C553.583,186.279 554.639,186.726 555.449,187.621 C556.26,188.517 556.665,189.837 556.665,191.581 C556.665,193.235 556.265,194.609 555.464,195.703 C554.663,196.796 553.553,197.343 552.134,197.343 C551.34,197.343 550.669,197.151 550.122,196.767 C549.797,196.539 549.448,196.175 549.077,195.673 L549.077,197.011 L547.456,197.011 L547.456,182.617 M554.16,194.658 C554.632,193.902 554.868,192.906 554.868,191.669 C554.868,190.569 554.632,189.658 554.16,188.935 C553.688,188.212 552.993,187.851 552.075,187.851 C551.275,187.851 550.573,188.147 549.971,188.74 C549.369,189.332 549.068,190.309 549.068,191.669 C549.068,192.652 549.191,193.45 549.439,194.062 C549.901,195.214 550.764,195.79 552.027,195.79 C552.977,195.79 553.688,195.413 554.16,194.658 M558.702,186.552 L560.372,186.552 L560.372,188.036 C560.867,187.424 561.391,186.985 561.945,186.718 C562.498,186.451 563.113,186.318 563.79,186.318 C565.275,186.318 566.277,186.835 566.798,187.87 C567.084,188.437 567.228,189.247 567.228,190.302 L567.228,197.011 L565.441,197.011 L565.441,190.419 C565.441,189.781 565.346,189.267 565.157,188.876 C564.845,188.225 564.279,187.9 563.458,187.9 C563.042,187.9 562.7,187.942 562.433,188.027 C561.951,188.17 561.528,188.456 561.163,188.886 C560.87,189.231 560.68,189.588 560.592,189.955 C560.504,190.323 560.46,190.849 560.46,191.533 L560.46,197.011 L558.702,197.011 L558.702,186.552 M571.716,195.429 C572.087,195.722 572.527,195.869 573.034,195.869 C573.653,195.869 574.252,195.725 574.831,195.439 C575.808,194.964 576.296,194.186 576.296,193.105 L576.296,191.689 C576.081,191.826 575.805,191.939 575.466,192.031 C575.127,192.122 574.795,192.187 574.47,192.226 L573.405,192.363 C572.767,192.447 572.289,192.581 571.97,192.763 C571.43,193.069 571.159,193.557 571.159,194.228 C571.159,194.736 571.345,195.136 571.716,195.429 M575.417,190.673 C575.821,190.621 576.091,190.452 576.228,190.165 C576.306,190.009 576.345,189.785 576.345,189.492 C576.345,188.893 576.132,188.458 575.705,188.188 C575.279,187.918 574.668,187.783 573.874,187.783 C572.956,187.783 572.305,188.03 571.921,188.525 C571.706,188.798 571.566,189.205 571.501,189.745 L569.861,189.745 C569.893,188.456 570.311,187.56 571.115,187.055 C571.919,186.55 572.852,186.298 573.913,186.298 C575.144,186.298 576.143,186.533 576.911,187.001 C577.673,187.47 578.054,188.199 578.054,189.189 L578.054,195.214 C578.054,195.397 578.091,195.543 578.166,195.654 C578.241,195.764 578.399,195.82 578.64,195.82 C578.718,195.82 578.806,195.815 578.904,195.805 C579.001,195.795 579.105,195.781 579.216,195.761 L579.216,197.06 C578.943,197.138 578.734,197.187 578.591,197.206 C578.448,197.226 578.252,197.236 578.005,197.236 C577.4,197.236 576.96,197.021 576.687,196.591 C576.543,196.363 576.443,196.041 576.384,195.624 C576.026,196.093 575.512,196.5 574.841,196.845 C574.17,197.19 573.432,197.363 572.624,197.363 C571.654,197.363 570.862,197.068 570.246,196.479 C569.631,195.89 569.323,195.152 569.323,194.267 C569.323,193.297 569.626,192.545 570.232,192.011 C570.837,191.477 571.631,191.148 572.614,191.025 L575.417,190.673 M580.921,186.601 L582.708,186.601 L582.708,197.011 L580.921,197.011 L580.921,186.601 M580.921,182.665 L582.708,182.665 L582.708,184.658 L580.921,184.658 L580.921,182.665 M585.407,182.665 L587.165,182.665 L587.165,197.011 L585.407,197.011 L585.407,182.665 M490.577,206.601 L492.364,206.601 L492.364,217.011 L490.577,217.011 L490.577,206.601 M490.577,202.665 L492.364,202.665 L492.364,204.658 L490.577,204.658 L490.577,202.665 M496.841,214.716 C497.316,215.471 498.078,215.849 499.126,215.849 C499.94,215.849 500.609,215.499 501.133,214.799 C501.657,214.099 501.919,213.095 501.919,211.786 C501.919,210.465 501.649,209.487 501.109,208.852 C500.568,208.217 499.901,207.9 499.107,207.9 C498.221,207.9 497.503,208.238 496.953,208.915 C496.403,209.592 496.128,210.589 496.128,211.904 C496.128,213.023 496.366,213.961 496.841,214.716 M500.786,206.874 C501.099,207.07 501.454,207.411 501.851,207.9 L501.851,202.617 L503.54,202.617 L503.54,217.011 L501.958,217.011 L501.958,215.556 C501.548,216.201 501.063,216.666 500.503,216.953 C499.943,217.239 499.302,217.382 498.579,217.382 C497.414,217.382 496.405,216.892 495.552,215.912 C494.699,214.933 494.273,213.629 494.273,212.001 C494.273,210.478 494.662,209.158 495.44,208.041 C496.218,206.925 497.329,206.367 498.775,206.367 C499.575,206.367 500.246,206.536 500.786,206.874 M507.052,206.689 L509.093,206.689 L509.093,208.818 L507.052,208.818 L507.052,206.689 M507.052,214.882 L509.093,214.882 L509.093,217.011 L507.052,217.011 L507.052,214.882 M418.757,235.351 C419.415,235.351 419.955,235.283 420.378,235.146 C421.133,234.892 421.752,234.404 422.234,233.681 C422.618,233.102 422.894,232.359 423.064,231.454 C423.161,230.914 423.21,230.413 423.21,229.951 C423.21,228.173 422.857,226.793 422.151,225.81 C421.444,224.827 420.306,224.335 418.737,224.335 L415.29,224.335 L415.29,235.351 L418.757,235.351 M413.337,222.665 L419.148,222.665 C421.12,222.665 422.65,223.365 423.737,224.765 C424.708,226.028 425.193,227.646 425.193,229.619 C425.193,231.142 424.906,232.519 424.333,233.749 C423.324,235.924 421.589,237.011 419.128,237.011 L413.337,237.011 L413.337,222.665 M427.872,222.665 L438.331,222.665 L438.331,224.423 L429.767,224.423 L429.767,228.779 L437.687,228.779 L437.687,230.439 L429.767,230.439 L429.767,235.302 L438.478,235.302 L438.478,237.011 L427.872,237.011 L427.872,222.665 M441.015,222.665 L442.958,222.665 L442.958,235.302 L450.224,235.302 L450.224,237.011 L441.015,237.011 L441.015,222.665 M452.31,222.665 L462.769,222.665 L462.769,224.423 L454.204,224.423 L454.204,228.779 L462.124,228.779 L462.124,230.439 L454.204,230.439 L454.204,235.302 L462.915,235.302 L462.915,237.011 L452.31,237.011 L452.31,222.665 M475.892,222.665 L475.892,224.374 L471.058,224.374 L471.058,237.011 L469.085,237.011 L469.085,224.374 L464.251,224.374 L464.251,222.665 L475.892,222.665 M477.841,222.665 L488.3,222.665 L488.3,224.423 L479.736,224.423 L479.736,228.779 L487.655,228.779 L487.655,230.439 L479.736,230.439 L479.736,235.302 L488.446,235.302 L488.446,237.011 L477.841,237.011 L477.841,222.665 M506.626,222.665 L506.626,224.374 L501.792,224.374 L501.792,237.011 L499.82,237.011 L499.82,224.374 L494.986,224.374 L494.986,222.665 L506.626,222.665 M508.155,222.617 L509.913,222.617 L509.913,227.968 C510.33,227.441 510.704,227.07 511.036,226.855 C511.603,226.484 512.309,226.298 513.155,226.298 C514.672,226.298 515.701,226.829 516.241,227.89 C516.534,228.469 516.681,229.273 516.681,230.302 L516.681,237.011 L514.874,237.011 L514.874,230.419 C514.874,229.651 514.777,229.088 514.581,228.73 C514.262,228.157 513.663,227.87 512.784,227.87 C512.055,227.87 511.394,228.121 510.802,228.622 C510.21,229.124 509.913,230.071 509.913,231.464 L509.913,237.011 L508.155,237.011 L508.155,222.617 M521.023,226.552 L521.023,233.495 C521.023,234.029 521.107,234.466 521.277,234.804 C521.589,235.429 522.172,235.742 523.025,235.742 C524.249,235.742 525.082,235.195 525.525,234.101 C525.766,233.515 525.886,232.711 525.886,231.689 L525.886,226.552 L527.644,226.552 L527.644,237.011 L525.984,237.011 L526.003,235.468 C525.775,235.865 525.492,236.201 525.154,236.474 C524.483,237.021 523.669,237.294 522.712,237.294 C521.221,237.294 520.206,236.796 519.665,235.8 C519.372,235.266 519.226,234.553 519.226,233.661 L519.226,226.552 L521.023,226.552 M530.374,226.552 L532.112,226.552 L532.112,228.036 C532.529,227.522 532.907,227.148 533.245,226.913 C533.825,226.516 534.482,226.318 535.218,226.318 C536.051,226.318 536.722,226.523 537.23,226.933 C537.516,227.167 537.777,227.512 538.011,227.968 C538.402,227.408 538.861,226.993 539.388,226.723 C539.915,226.453 540.508,226.318 541.165,226.318 C542.571,226.318 543.529,226.826 544.036,227.841 C544.31,228.388 544.446,229.124 544.446,230.048 L544.446,237.011 L542.62,237.011 L542.62,229.745 C542.62,229.049 542.446,228.57 542.098,228.31 C541.75,228.05 541.325,227.919 540.823,227.919 C540.133,227.919 539.539,228.15 539.041,228.613 C538.543,229.075 538.294,229.846 538.294,230.927 L538.294,237.011 L536.507,237.011 L536.507,230.185 C536.507,229.475 536.422,228.958 536.253,228.632 C535.986,228.144 535.488,227.9 534.759,227.9 C534.095,227.9 533.491,228.157 532.947,228.671 C532.404,229.186 532.132,230.117 532.132,231.464 L532.132,237.011 L530.374,237.011 L530.374,226.552 M546.894,222.617 L548.603,222.617 L548.603,227.822 C548.987,227.32 549.446,226.938 549.98,226.674 C550.514,226.411 551.093,226.279 551.718,226.279 C553.02,226.279 554.076,226.726 554.887,227.621 C555.697,228.517 556.103,229.837 556.103,231.581 C556.103,233.235 555.702,234.609 554.902,235.703 C554.101,236.796 552.991,237.343 551.571,237.343 C550.777,237.343 550.107,237.151 549.56,236.767 C549.234,236.539 548.886,236.175 548.515,235.673 L548.515,237.011 L546.894,237.011 L546.894,222.617 M553.598,234.658 C554.07,233.902 554.306,232.906 554.306,231.669 C554.306,230.569 554.07,229.658 553.598,228.935 C553.126,228.212 552.431,227.851 551.513,227.851 C550.712,227.851 550.011,228.147 549.408,228.74 C548.806,229.332 548.505,230.309 548.505,231.669 C548.505,232.652 548.629,233.45 548.876,234.062 C549.338,235.214 550.201,235.79 551.464,235.79 C552.415,235.79 553.126,235.413 553.598,234.658 M558.14,226.552 L559.81,226.552 L559.81,228.036 C560.305,227.425 560.829,226.985 561.382,226.718 C561.935,226.451 562.551,226.318 563.228,226.318 C564.712,226.318 565.715,226.835 566.236,227.87 C566.522,228.437 566.665,229.247 566.665,230.302 L566.665,237.011 L564.878,237.011 L564.878,230.419 C564.878,229.781 564.784,229.267 564.595,228.876 C564.282,228.225 563.716,227.9 562.896,227.9 C562.479,227.9 562.137,227.942 561.87,228.027 C561.389,228.17 560.965,228.456 560.601,228.886 C560.308,229.231 560.117,229.588 560.029,229.955 C559.942,230.323 559.898,230.849 559.898,231.533 L559.898,237.011 L558.14,237.011 L558.14,226.552 M571.154,235.429 C571.525,235.722 571.964,235.869 572.472,235.869 C573.09,235.869 573.689,235.725 574.269,235.439 C575.245,234.964 575.734,234.186 575.734,233.105 L575.734,231.689 C575.519,231.826 575.242,231.939 574.904,232.031 C574.565,232.122 574.233,232.187 573.907,232.226 L572.843,232.363 C572.205,232.447 571.726,232.581 571.407,232.763 C570.867,233.069 570.597,233.557 570.597,234.228 C570.597,234.736 570.782,235.136 571.154,235.429 M574.855,230.673 C575.258,230.621 575.529,230.452 575.665,230.165 C575.743,230.009 575.782,229.785 575.782,229.492 C575.782,228.893 575.569,228.458 575.143,228.188 C574.716,227.918 574.106,227.783 573.312,227.783 C572.394,227.783 571.743,228.03 571.359,228.525 C571.144,228.798 571.004,229.205 570.939,229.745 L569.298,229.745 C569.331,228.456 569.749,227.56 570.553,227.055 C571.357,226.55 572.29,226.298 573.351,226.298 C574.581,226.298 575.581,226.533 576.349,227.001 C577.111,227.47 577.491,228.199 577.491,229.189 L577.491,235.214 C577.491,235.397 577.529,235.543 577.604,235.654 C577.679,235.764 577.836,235.82 578.077,235.82 C578.155,235.82 578.243,235.815 578.341,235.805 C578.439,235.795 578.543,235.781 578.654,235.761 L578.654,237.06 C578.38,237.138 578.172,237.187 578.029,237.206 C577.885,237.226 577.69,237.236 577.443,237.236 C576.837,237.236 576.398,237.021 576.124,236.591 C575.981,236.363 575.88,236.041 575.821,235.624 C575.463,236.093 574.949,236.5 574.279,236.845 C573.608,237.19 572.869,237.363 572.062,237.363 C571.092,237.363 570.299,237.068 569.684,236.479 C569.069,235.89 568.761,235.152 568.761,234.267 C568.761,233.297 569.064,232.545 569.669,232.011 C570.275,231.477 571.069,231.148 572.052,231.025 L574.855,230.673 M580.359,226.601 L582.146,226.601 L582.146,237.011 L580.359,237.011 L580.359,226.601 M580.359,222.665 L582.146,222.665 L582.146,224.658 L580.359,224.658 L580.359,222.665 M584.845,222.665 L586.603,222.665 L586.603,237.011 L584.845,237.011 L584.845,222.665 Z" style="stroke:#303030;stroke-opacity:1;stroke-width:1;stroke-linejoin:miter;stroke-miterlimit:2;stroke-linecap:round;fill-rule:nonzero;fill:#000000;fill-opacity:1;"/>
        </g>
        <g id="Shape17">
            <desc shapeID="17" type="0" basicInfo-basicType="2" basicInfo-roundedRectRadius="12" basicInfo-polygonSides="6" basicInfo-starPoints="5" bounding="rect(-55.5,-26.5,111,53)" text="" font-familyName="Helvetica" font-pixelSize="20" font-bold="0" font-underline="0" font-alignment="1" strokeStyle="0" markerStart="0" markerEnd="0" shadowEnabled="0" shadowOffsetX="0" shadowOffsetY="2" shadowBlur="4" shadowOpacity="160" blurEnabled="0" blurRadius="4" transform="matrix(1,0,0,1,299,57)" pers-center="0,0" pers-size="0,0" pers-start="0,0" pers-end="0,0" locked="0" mesh="" flag=""/>
            <path id="shapePath17" d="M243.5,42.5 C243.5,35.8726 248.873,30.5 255.5,30.5 L342.5,30.5 C349.127,30.5 354.5,35.8726 354.5,42.5 L354.5,71.5 C354.5,78.1274 349.127,83.5 342.5,83.5 L255.5,83.5 C248.873,83.5 243.5,78.1274 243.5,71.5 L243.5,42.5 Z" style="stroke:#303030;stroke-opacity:1;stroke-width:1;stroke-linejoin:miter;stroke-miterlimit:2;stroke-linecap:round;fill-rule:evenodd;fill:#cbcbcb;fill-opacity:1;"/>
        </g>
        <g id="Shape18">
            <desc shapeID="18" type="2" basicInfo-basicType="0" basicInfo-roundedRectRadius="12" basicInfo-polygonSides="6" basicInfo-starPoints="5" bounding="rect(-45.5,-22,91,44)" text="GET&#10;Posters" font-familyName="Helvetica" font-pixelSize="20" font-bold="0" font-underline="0" font-alignment="1" strokeStyle="0" markerStart="0" markerEnd="0" shadowEnabled="0" shadowOffsetX="0" shadowOffsetY="2" shadowBlur="4" shadowOpacity="160" blurEnabled="0" blurRadius="4" transform="matrix(1,0,0,1,300,57.5)" pers-center="0,0" pers-size="0,0" pers-start="0,0" pers-end="0,0" locked="0" mesh="" flag=""/>
            <path id="shapePath18" d="M290.689,38.9551 C292.115,39.7038 292.988,41.0156 293.307,42.8906 L291.383,42.8906 C291.148,41.8424 290.663,41.0791 289.928,40.6006 C289.192,40.1221 288.264,39.8828 287.145,39.8828 C285.816,39.8828 284.698,40.3809 283.79,41.377 C282.882,42.373 282.428,43.8574 282.428,45.8301 C282.428,47.5358 282.802,48.9242 283.551,49.9951 C284.299,51.0661 285.52,51.6016 287.213,51.6016 C288.508,51.6016 289.581,51.2256 290.431,50.4736 C291.28,49.7217 291.715,48.5059 291.734,46.8262 L287.242,46.8262 L287.242,45.2148 L293.541,45.2148 L293.541,52.8906 L292.291,52.8906 L291.822,51.0449 C291.165,51.7676 290.582,52.2689 290.074,52.5488 C289.221,53.0306 288.137,53.2715 286.822,53.2715 C285.123,53.2715 283.661,52.7214 282.438,51.6211 C281.103,50.2409 280.436,48.3464 280.436,45.9375 C280.436,43.5352 281.087,41.6243 282.389,40.2051 C283.626,38.8509 285.227,38.1738 287.193,38.1738 C288.541,38.1738 289.706,38.4342 290.689,38.9551 M296.725,38.5449 L307.184,38.5449 L307.184,40.3027 L298.619,40.3027 L298.619,44.6582 L306.539,44.6582 L306.539,46.3184 L298.619,46.3184 L298.619,51.1816 L307.33,51.1816 L307.33,52.8906 L296.725,52.8906 L296.725,38.5449 M320.307,38.5449 L320.307,40.2539 L315.473,40.2539 L315.473,52.8906 L313.5,52.8906 L313.5,40.2539 L308.666,40.2539 L308.666,38.5449 L320.307,38.5449 M267.834,58.5449 L274.289,58.5449 C275.565,58.5449 276.594,58.9046 277.375,59.624 C278.156,60.3434 278.547,61.3542 278.547,62.6562 C278.547,63.776 278.199,64.751 277.502,65.5811 C276.805,66.4111 275.734,66.8262 274.289,66.8262 L269.777,66.8262 L269.777,72.8906 L267.834,72.8906 L267.834,58.5449 M275.412,60.5176 C274.982,60.3158 274.393,60.2148 273.645,60.2148 L269.777,60.2148 L269.777,65.1855 L273.645,65.1855 C274.517,65.1855 275.225,65 275.769,64.6289 C276.312,64.2578 276.584,63.6035 276.584,62.666 C276.584,61.6113 276.193,60.8952 275.412,60.5176 M287.29,70.4346 C287.723,69.5524 287.939,68.571 287.939,67.4902 C287.939,66.5137 287.783,65.7194 287.471,65.1074 C286.976,64.1439 286.123,63.6621 284.912,63.6621 C283.838,63.6621 283.057,64.0723 282.568,64.8926 C282.08,65.7129 281.836,66.7025 281.836,67.8613 C281.836,68.9746 282.08,69.9023 282.568,70.6445 C283.057,71.3867 283.831,71.7578 284.893,71.7578 C286.058,71.7578 286.857,71.3167 287.29,70.4346 M288.379,63.4766 C289.31,64.375 289.775,65.6966 289.775,67.4414 C289.775,69.1276 289.365,70.5208 288.545,71.6211 C287.725,72.7214 286.452,73.2715 284.727,73.2715 C283.288,73.2715 282.145,72.7848 281.299,71.8115 C280.452,70.8382 280.029,69.5312 280.029,67.8906 C280.029,66.1328 280.475,64.7331 281.367,63.6914 C282.259,62.6497 283.457,62.1289 284.961,62.1289 C286.309,62.1289 287.448,62.5781 288.379,63.4766 M292.896,69.6094 C292.949,70.1953 293.095,70.6445 293.336,70.957 C293.779,71.5234 294.547,71.8066 295.641,71.8066 C296.292,71.8066 296.865,71.665 297.359,71.3818 C297.854,71.0986 298.102,70.6608 298.102,70.0684 C298.102,69.6191 297.903,69.2773 297.506,69.043 C297.252,68.8997 296.751,68.7337 296.002,68.5449 L294.605,68.1934 C293.714,67.972 293.056,67.7246 292.633,67.4512 C291.878,66.9759 291.5,66.3184 291.5,65.4785 C291.5,64.4889 291.856,63.6882 292.569,63.0762 C293.282,62.4642 294.241,62.1582 295.445,62.1582 C297.021,62.1582 298.157,62.6204 298.854,63.5449 C299.29,64.1309 299.501,64.7624 299.488,65.4395 L297.828,65.4395 C297.796,65.0423 297.656,64.681 297.408,64.3555 C297.005,63.8932 296.305,63.6621 295.309,63.6621 C294.645,63.6621 294.142,63.7891 293.8,64.043 C293.458,64.2969 293.287,64.6322 293.287,65.0488 C293.287,65.5046 293.512,65.8691 293.961,66.1426 C294.221,66.3053 294.605,66.4486 295.113,66.5723 L296.275,66.8555 C297.538,67.1615 298.385,67.4577 298.814,67.7441 C299.498,68.1934 299.84,68.8997 299.84,69.8633 C299.84,70.7943 299.487,71.5983 298.78,72.2754 C298.074,72.9525 296.998,73.291 295.553,73.291 C293.997,73.291 292.895,72.9378 292.247,72.2314 C291.599,71.5251 291.253,70.651 291.207,69.6094 L292.896,69.6094 M302.203,59.5117 L303.98,59.5117 L303.98,62.4316 L305.65,62.4316 L305.65,63.8672 L303.98,63.8672 L303.98,70.6934 C303.98,71.0579 304.104,71.3021 304.352,71.4258 C304.488,71.4974 304.716,71.5332 305.035,71.5332 C305.12,71.5332 305.211,71.5316 305.309,71.5283 C305.406,71.5251 305.52,71.5169 305.65,71.5039 L305.65,72.8906 C305.449,72.9492 305.239,72.9915 305.021,73.0176 C304.802,73.0436 304.566,73.0566 304.312,73.0566 C303.492,73.0566 302.936,72.8467 302.643,72.4268 C302.35,72.0068 302.203,71.4616 302.203,70.791 L302.203,63.8672 L300.787,63.8672 L300.787,62.4316 L302.203,62.4316 L302.203,59.5117 M313.912,62.7197 C314.609,63.068 315.139,63.5189 315.504,64.0723 C315.855,64.5996 316.09,65.2148 316.207,65.918 C316.311,66.3997 316.363,67.168 316.363,68.2227 L308.697,68.2227 C308.73,69.2839 308.98,70.1351 309.449,70.7764 C309.918,71.4176 310.644,71.7383 311.627,71.7383 C312.545,71.7383 313.277,71.4355 313.824,70.8301 C314.137,70.4785 314.358,70.0716 314.488,69.6094 L316.217,69.6094 C316.171,69.9935 316.02,70.4215 315.763,70.8936 C315.506,71.3656 315.217,71.7513 314.898,72.0508 C314.365,72.5716 313.704,72.9232 312.916,73.1055 C312.493,73.2096 312.014,73.2617 311.48,73.2617 C310.178,73.2617 309.075,72.7881 308.17,71.8408 C307.265,70.8936 306.812,69.5671 306.812,67.8613 C306.812,66.1816 307.268,64.8177 308.18,63.7695 C309.091,62.7214 310.283,62.1973 311.754,62.1973 C312.496,62.1973 313.215,62.3714 313.912,62.7197 M314.557,66.8262 C314.485,66.0645 314.319,65.4557 314.059,65 C313.577,64.1536 312.773,63.7305 311.646,63.7305 C310.839,63.7305 310.162,64.0218 309.615,64.6045 C309.068,65.1872 308.779,65.9277 308.746,66.8262 L314.557,66.8262 M318.557,62.4316 L320.227,62.4316 L320.227,64.2383 C320.363,63.8867 320.699,63.4587 321.232,62.9541 C321.766,62.4495 322.382,62.1973 323.078,62.1973 C323.111,62.1973 323.166,62.2005 323.244,62.207 C323.322,62.2135 323.456,62.2266 323.645,62.2461 L323.645,64.1016 C323.54,64.082 323.444,64.069 323.356,64.0625 C323.269,64.056 323.173,64.0527 323.068,64.0527 C322.183,64.0527 321.503,64.3376 321.027,64.9072 C320.552,65.4769 320.314,66.1328 320.314,66.875 L320.314,72.8906 L318.557,72.8906 L318.557,62.4316 M326.209,69.6094 C326.261,70.1953 326.408,70.6445 326.648,70.957 C327.091,71.5234 327.859,71.8066 328.953,71.8066 C329.604,71.8066 330.177,71.665 330.672,71.3818 C331.167,71.0986 331.414,70.6608 331.414,70.0684 C331.414,69.6191 331.215,69.2773 330.818,69.043 C330.564,68.8997 330.063,68.7337 329.314,68.5449 L327.918,68.1934 C327.026,67.972 326.368,67.7246 325.945,67.4512 C325.19,66.9759 324.812,66.3184 324.812,65.4785 C324.812,64.4889 325.169,63.6882 325.882,63.0762 C326.595,62.4642 327.553,62.1582 328.758,62.1582 C330.333,62.1582 331.469,62.6204 332.166,63.5449 C332.602,64.1309 332.814,64.7624 332.801,65.4395 L331.141,65.4395 C331.108,65.0423 330.968,64.681 330.721,64.3555 C330.317,63.8932 329.617,63.6621 328.621,63.6621 C327.957,63.6621 327.454,63.7891 327.112,64.043 C326.771,64.2969 326.6,64.6322 326.6,65.0488 C326.6,65.5046 326.824,65.8691 327.273,66.1426 C327.534,66.3053 327.918,66.4486 328.426,66.5723 L329.588,66.8555 C330.851,67.1615 331.697,67.4577 332.127,67.7441 C332.811,68.1934 333.152,68.8997 333.152,69.8633 C333.152,70.7943 332.799,71.5983 332.093,72.2754 C331.386,72.9525 330.311,73.291 328.865,73.291 C327.309,73.291 326.207,72.9378 325.56,72.2314 C324.912,71.5251 324.565,70.651 324.52,69.6094 L326.209,69.6094 Z" style="stroke:none;fill-rule:nonzero;fill:#000000;fill-opacity:1;"/>
        </g>
    </g>
</svg>
